<!-- Generator: Adobe Illustrator 19.0.0, SVG Export Plug-In  -->
<svg version="1.1"
	 xmlns="http://www.w3.org/2000/svg" xmlns:xlink="http://www.w3.org/1999/xlink" xmlns:a="http://ns.adobe.com/AdobeSVGViewerExtensions/3.0/"
	 x="0px" y="0px" width="66.8px" height="95.6px" viewBox="0 0 66.8 95.6" style="enable-background:new 0 0 66.8 95.6;"
	 xml:space="preserve">
<style type="text/css">
	.st0{fill:#F57272;}
</style>
<defs>
</defs>
<g id="XMLID_30_">
	<g id="XMLID_59_">
		<path id="XMLID_60_" class="st0" d="M34.9,27.6l-0.3-0.4c-0.1-0.1-0.2-0.2-0.3-0.4c-0.2-0.2-0.4-0.5-0.7-0.7
			c-0.5-0.5-1-0.8-1.6-1.2c-1.1-0.7-2.3-1-3.6-1.1c-0.6,0-1.2,0-1.8,0.2c-0.6,0.1-1.1,0.4-1.6,0.7c-0.5,0.3-1,0.7-1.4,1.1
			c-0.4,0.4-0.8,0.9-1,1.4c-0.1,0.1-0.2,0.3-0.2,0.4c-0.1,0.1-0.1,0.2-0.2,0.4c-0.1,0.3-0.2,0.5-0.3,0.8c-0.2,0.6-0.3,1.1-0.3,1.7
			c0,1.2,0.3,2.4,1.1,3.4c0.4,0.5,0.8,1,1.3,1.3c0.5,0.4,1.1,0.7,1.7,0.9c0.6,0.2,1.3,0.3,1.9,0.3c0.6,0,1.3-0.1,1.9-0.2
			c0.8-0.2,1.6,0.2,1.8,0.9c0.1,0.5,0,1-0.4,1.3l-0.8,0.7l0,0c-0.3,0.1-0.8,0.3-1.2,0.5c-0.4,0.2-0.8,0.4-1.2,0.6
			c-0.8,0.4-1.5,0.9-2.3,1.4c-1.4,1-2.7,2.3-3.8,3.6c-1.1,1.3-2,2.8-2.7,4.3c-0.7,1.6-1.2,3.2-1.5,4.9c-0.3,1.7-0.5,3.4-0.5,5.1
			c0,1,0.1,1.7,0.2,2.6c0.1,0.8,0.3,1.7,0.5,2.5c0.5,1.6,1.1,3.1,2.1,4.4c1,1.3,2.2,2.5,3.6,3.3c0.7,0.4,1.5,0.8,2.3,1.1
			c0.8,0.3,1.6,0.5,2.5,0.7c0.8,0.2,1.7,0.2,2.6,0.2c0.9,0,1.7-0.1,2.5-0.3c0.8-0.2,1.6-0.4,2.4-0.8l0.5-0.3l0.5-0.3l0.1-0.1
			l0.1-0.1l0.3-0.2c0.2-0.1,0.3-0.2,0.5-0.4c1.4-1,2.5-2.3,3.3-3.8c0.8-1.5,1.3-3.1,1.5-4.8c0.2-1.7,0-3.4-0.5-5.1
			c-0.5-1.6-1.4-3.2-2.8-4.3c-1.3-1.2-3-2-4.9-2.2l0,0c-0.6-0.1-1-0.6-0.9-1.1c0.1-0.5,0.5-0.8,1.1-0.8c1.1,0,2.3,0.2,3.4,0.6
			c1.1,0.4,2.1,0.9,3.1,1.6c1.9,1.4,3.2,3.2,4.1,5.3c0.9,2,1.2,4.2,1.1,6.3c-0.1,2.1-0.6,4.3-1.5,6.3c-0.9,2-2.3,3.8-4,5.3
			c-0.2,0.2-0.5,0.4-0.7,0.6L39.6,76l-0.1,0.1l-0.1,0.1l-0.1,0.1c-0.3,0.2-0.5,0.3-0.8,0.5l-0.8,0.4c-1.1,0.5-2.2,0.9-3.4,1.2
			c-1.2,0.3-2.3,0.4-3.5,0.5c-1.2,0-2.4,0-3.5-0.2c-1.2-0.2-2.3-0.5-3.4-0.9c-1.1-0.4-2.2-0.9-3.2-1.5c-2-1.2-3.8-2.7-5.1-4.6
			c-1.4-1.8-2.3-3.9-2.9-5.9c-0.3-1-0.5-2.1-0.6-3.1c-0.1-0.5-0.1-1.1-0.1-1.6c0-0.6,0-1,0-1.5l0-0.3l0-0.2l0-0.1l0,0l0-0.1l0-0.8
			c0-0.5,0.1-1,0.1-1.5c0.1-1,0.3-2,0.5-3c0.5-2,1.1-4,2.1-5.8c0.9-1.9,2.2-3.6,3.6-5.1c1.4-1.5,3.2-2.8,5-3.9
			c0.9-0.5,1.9-1,2.8-1.4c0.5-0.2,1-0.4,1.5-0.6c0.5-0.2,1-0.3,1.6-0.5l0,0l0.6,3c-0.9,0.1-1.7,0.1-2.6,0c-0.9-0.1-1.8-0.3-2.6-0.6
			c-0.9-0.3-1.7-0.7-2.5-1.2c-0.4-0.3-0.7-0.5-1.1-0.8c-0.4-0.3-0.7-0.6-1-0.9c-0.6-0.7-1.2-1.4-1.6-2.3c-0.5-0.8-0.8-1.7-1-2.7
			c-0.2-0.9-0.3-2-0.1-2.9c0.1-0.5,0.2-1,0.3-1.5c0.1-0.2,0.2-0.5,0.3-0.8l0.1-0.2l0.1-0.1l0.1-0.2l0.1-0.1l0.1-0.2l0-0.1l0.2-0.3
			c0.1-0.2,0.3-0.4,0.4-0.6c0.3-0.4,0.6-0.8,1-1.1c0.8-0.7,1.6-1.4,2.6-1.8c1-0.5,2-0.8,3.1-1c1.1-0.1,2.1-0.1,3.2,0
			c1,0.2,2,0.5,2.9,0.9c0.9,0.4,1.6,1,2.3,1.6c0.7,0.6,1.2,1.4,1.6,2.1c0.2,0.4,0.4,0.8,0.5,1.1c0.1,0.2,0.2,0.4,0.2,0.6
			c0,0.2,0.1,0.4,0.1,0.6l0,0.2c0.1,0.4-0.2,0.9-0.7,0.9C35.4,28,35.1,27.8,34.9,27.6z"/>
	</g>
	<g id="XMLID_57_">
		<path id="XMLID_58_" class="st0" d="M25.1,55.8l14.2-11.7c0.5-0.4,1.2-0.4,1.7,0.1c0.4,0.4,0.4,1.1-0.1,1.5l-0.1,0.1L27.2,58.2
			c-0.6,0.6-1.7,0.6-2.3,0c-0.6-0.6-0.6-1.6,0-2.1c0,0,0,0,0,0L25.1,55.8z"/>
	</g>
	<g id="XMLID_55_">
		<path id="XMLID_56_" class="st0" d="M6.1,24.6c-1.2-0.9-2.5-1.6-4-2.2c-0.5-0.2-1,0.2-1.1,0.6c-0.2,0.5,0.2,0.9,0.6,1.1
			c1.1,0.4,2.2,1,3.1,1.7C5.7,26.5,7,25.3,6.1,24.6z"/>
	</g>
	<g id="XMLID_53_">
		<path id="XMLID_54_" class="st0" d="M27.1,0.8c-0.2,4-0.4,7.9-0.6,11.9c-0.1,1.1,1.8,1.1,1.8,0c0.2-4,0.4-7.9,0.6-11.9
			C29-0.3,27.1-0.3,27.1,0.8z"/>
	</g>
	<g id="XMLID_51_">
		<path id="XMLID_52_" class="st0" d="M4.7,34.9C3.4,35,2.2,35,0.9,34.8c-1.2-0.1-1.2,1.6,0,1.7c1.3,0.2,2.6,0.2,3.8,0.1
			C5.9,36.6,5.9,34.9,4.7,34.9z"/>
	</g>
	<g id="XMLID_49_">
		<path id="XMLID_50_" class="st0" d="M58.3,51.4c-2.2-0.1-4.5-0.2-6.7-0.1c-1.2,0-1.2,1.7,0,1.7c2.2,0,4.5,0,6.7,0.1
			C59.5,53.2,59.5,51.5,58.3,51.4z"/>
	</g>
	<g id="XMLID_47_">
		<path id="XMLID_48_" class="st0" d="M66.3,69.8c-4.5-2.4-9-5-13.8-7c-1.1-0.4-2,1.1-0.9,1.5c4.8,2,9.3,4.6,13.8,7
			C66.4,71.8,67.3,70.3,66.3,69.8z"/>
	</g>
	<g id="XMLID_45_">
		<path id="XMLID_46_" class="st0" d="M55.7,90.7c-3-4.8-6-9.7-8.8-14.6c-0.6-1-2.2-0.1-1.6,0.9c2.8,4.9,5.7,9.8,8.8,14.6
			C54.7,92.6,56.3,91.7,55.7,90.7z"/>
	</g>
	<g id="XMLID_43_">
		<path id="XMLID_44_" class="st0" d="M7.4,68.8c-0.5-0.3-1-0.1-1.3,0.3c-0.9,1.1-1.9,2-2.9,2.9c-0.9,0.7,0.4,1.9,1.3,1.2
			c1.2-1,2.3-2.1,3.2-3.2C8,69.7,7.7,69.1,7.4,68.8z"/>
	</g>
	<g id="XMLID_41_">
		<path id="XMLID_42_" class="st0" d="M14.7,79.5c-0.1,2.5-1.7,5.4-2.6,7.8c-0.8,2.1-1.6,4.2-2.4,6.2c-0.3,0.2-0.6,0.5-0.5,0.9
			c0,0.2,0.1,0.3,0.1,0.5c0.2,0.9,1.5,0.7,1.8,0c1-2.7,2.1-5.5,3.1-8.2c0.9-2.3,2.2-4.7,2.3-7.2C16.6,78.4,14.7,78.4,14.7,79.5z"/>
	</g>
	<g id="XMLID_39_">
		<path id="XMLID_40_" class="st0" d="M35,91.3c-0.9-2.8-1.2-5.7-1-8.6c0.1-1.1-1.8-1.1-1.8,0c-0.2,3.1,0.1,6.1,1.1,9.1
			C33.6,92.9,35.3,92.4,35,91.3z"/>
	</g>
	<g id="XMLID_37_">
		<path id="XMLID_38_" class="st0" d="M41.6,4.6c-2.9,3.3-5.7,6.7-8.3,10.1c-0.7,0.9,0.9,1.8,1.6,0.9c2.5-3.4,5.2-6.6,8-9.8
			C43.7,4.9,42.4,3.7,41.6,4.6z"/>
	</g>
	<g id="XMLID_35_">
		<path id="XMLID_36_" class="st0" d="M14.9,18.4c-1.7-2.4-3.6-4.7-5.1-7.3C8.6,8.9,7.7,6.6,5.8,4.8C5,4,3.7,5.2,4.5,6
			c2,1.9,2.8,4.5,4.2,6.7c1.4,2.3,3.1,4.4,4.6,6.5C14,20.2,15.6,19.3,14.9,18.4z"/>
	</g>
	<g id="XMLID_33_">
		<path id="XMLID_34_" class="st0" d="M20.9,14.5c-0.6-2-1.5-3.9-2.5-5.6c-0.6-1-2.2-0.1-1.6,0.9c1,1.7,1.8,3.4,2.4,5.2
			C19.5,16,21.3,15.6,20.9,14.5z"/>
	</g>
	<g id="XMLID_31_">
		<path id="XMLID_32_" class="st0" d="M42.7,58.7c0-0.1,0-0.1-0.1-0.2c-0.4-1.3-1-2.5-1.6-3.7c0-0.1,0-0.2-0.1-0.4
			c-0.1-0.1-0.1-0.2-0.2-0.3c-0.2-0.3-0.3-0.5-0.5-0.8c-0.2-0.3-0.4-0.4-0.7-0.4c-0.6-0.5-1.2-1-1.9-1.4c-0.4-0.3-0.9-0.1-1.2,0.2
			c-0.5-0.4-0.9-0.9-1.4-1.3c-0.9-0.7-2.2,0.5-1.3,1.2c0,0,0.1,0.1,0.1,0.1c-0.5-0.1-1-0.2-1.5-0.3c-0.9-0.1-1.8,1.1-0.7,1.6
			c2.3,1,4,2.4,5.3,4.1c0.6,1.5,0.9,3.1,1.2,4.6c0.5,2.9,0.7,5.8-0.5,8.4c-0.4,0.5-0.8,1-1.3,1.5c-2.1,1.6-4.5,2.7-7.2,3.2
			c-1,0.2-0.8,1.7,0.2,1.7c0.6,0,1.1,0,1.6-0.1c0.1,0.4,0.6,0.7,1.1,0.5c2.8-1,5.1-2.6,7.3-4.4c0.4,0.1,0.9-0.1,1.1-0.6
			c0.4-1.1,0.7-2.3,0.9-3.4c0.2-0.1,0.3-0.2,0.4-0.4c0,0.3,0,0.6,0,0.8c0,1.1,1.7,1.1,1.8,0C44.2,65.7,43.9,62.1,42.7,58.7z"/>
	</g>
</g>
</svg>
