
<svg width="178px" height="510px" viewBox="1090 0 178 510" version="1.1" xmlns="http://www.w3.org/2000/svg" xmlns:xlink="http://www.w3.org/1999/xlink">
    <!-- Generator: Sketch 39.1 (31720) - http://www.bohemiancoding.com/sketch -->
    <desc>Created with Sketch.</desc>
    <defs>
        <polygon id="path-1" points="177.150646 195.388342 177.150646 0.820064267 0.000117545404 0.820064267 0.000117545404 195.388342"></polygon>
        <polygon id="path-3" points="0 509.448046 177.150646 509.448046 177.150646 0 0 0"></polygon>
    </defs>
    <g id="Page-1" stroke="none" stroke-width="1" fill="none" fill-rule="evenodd" transform="translate(1090.000000, 0.000000)">
        <path d="M171.091918,488.310185 C171.091918,490.970314 134.150611,493.124375 88.5728,493.124375 C43.0005953,493.124375 6.05928819,490.970314 6.05928819,488.310185 C6.05928819,485.655301 43.0005953,483.495995 88.5728,483.495995 C134.150611,483.495995 171.091918,485.655301 171.091918,488.310185 L171.091918,488.310185 Z" id="Fill-1" fill="#797470"></path>
        <path d="M175.423906,482.238825 C73.6317323,471.678285 1.72533858,482.238825 1.72533858,482.238825 L2.03508661,491.892116 C2.03508661,491.892116 70.7150551,479.113272 172.507228,489.672501 L175.423906,482.238825 Z" id="Fill-3" fill="#F3CDC2"></path>
        <g id="Group-7" transform="translate(0.000000, 290.502031)">
            <mask id="mask-2" fill="white">
                <use xlink:href="#path-1"></use>
            </mask>
            <g id="Clip-6"></g>
            <path d="M175.414375,195.388342 L173.107383,195.154974 C173.312013,193.362763 192.599083,15.797545 93.3143276,2.98199229 L83.6799024,2.99248072 C-15.4478772,15.797545 3.83779213,193.362763 4.04382362,195.154974 L1.7368315,195.388342 C1.68497323,194.937339 -3.38732598,149.649602 4.04942992,103.343175 C13.9501543,41.7131491 41.4294299,6.26356041 83.5215244,0.831863753 L93.4713039,0.820064267 C135.721776,6.26356041 163.19965,41.7131491 173.100375,103.343175 C180.538532,149.649602 175.466233,194.937339 175.414375,195.388342" id="Fill-5" fill="#8A837F" mask="url(#mask-2)"></path>
        </g>
        <path d="M155.830591,491.439278 L153.481551,491.262285 C153.641331,489.418943 168.526055,306.64753 92.1374252,293.492414 L84.797378,293.509458 C8.6161811,306.64753 23.5079134,489.418943 23.6662913,491.262285 L21.3200551,491.439278 C21.2794094,490.975165 17.3718189,444.420949 23.1028583,396.815267 C30.8465591,332.50938 51.531,297.017838 84.5857402,291.325242 L92.3504646,291.308198 C125.618244,297.017838 146.302685,332.50938 154.046386,396.815267 C159.777425,444.420949 155.871236,490.975165 155.830591,491.439278" id="Fill-8" fill="#8A837F"></path>
        <path d="M136.49054,491.413712 L134.135894,491.287851 C134.249422,489.444509 144.762635,306.918262 91.0949339,293.508802 L86.057674,293.508802 C32.3857685,306.918262 42.9017843,489.444509 43.0153118,491.287851 L40.6634693,491.413712 C40.6340362,490.949599 37.8729339,444.425537 41.923485,396.85001 C47.4008394,332.566411 62.0963512,297.068314 85.6091701,291.34163 L85.9049024,291.308853 L91.5462409,291.34163 C115.057658,297.068314 129.751769,332.566411 135.227721,396.85001 C139.278272,444.425537 136.51717,490.949599 136.49054,491.413712" id="Fill-10" fill="#8A837F"></path>
        <path d="M114.625132,491.385524 L112.270487,491.316039 C112.287306,490.853237 113.751951,444.43537 111.599132,396.973905 C108.057353,318.857375 97.7964236,297.521283 89.7163449,293.509458 L87.4373843,293.509458 C79.3545024,297.521283 69.0935732,318.857375 65.5517937,396.973905 C63.4003764,444.43537 64.8664236,490.853237 64.8804394,491.316039 L62.5271953,491.385524 C62.2791165,483.782722 56.8185811,305.062465 86.637085,291.419638 L86.8809591,291.308198 L90.2713685,291.308198 L90.5166441,291.419638 C120.332345,305.062465 114.873211,483.782722 114.625132,491.385524" id="Fill-12" fill="#8A837F"></path>
        <mask id="mask-4" fill="white">
            <use xlink:href="#path-3"></use>
        </mask>
        <g id="Clip-15"></g>
        <polygon id="Fill-14" fill="#8A837F" mask="url(#mask-4)" points="87.4218268 492.132956 89.7288189 492.132956 89.7288189 292.408303 87.4218268 292.408303"></polygon>
        <path d="M173.940198,501.090339 C72.0078677,519.982627 2.3720252,500.939568 2.3720252,500.939568 L1.4764189,483.495995 C1.4764189,483.495995 73.7360094,502.388283 175.673946,483.495995 L173.940198,501.090339 Z" id="Fill-16" fill="#FEDED4" mask="url(#mask-4)"></path>
        <path d="M91.1610882,354.354162 C49.9491827,354.354162 18.972978,346.048635 18.5118598,345.920152 L19.160789,343.849997 C19.8503638,344.037478 88.9325843,362.548249 157.995183,343.847375 L158.635702,345.921463 C135.281261,352.245987 111.919813,354.354162 91.1610882,354.354162" id="Fill-17" fill="#8A837F" mask="url(#mask-4)"></path>
        <path d="M96.9522551,425.631185 C46.4338929,425.631185 3.33967244,418.809771 2.69354646,418.707509 L3.0859874,416.577046 C4.05307402,416.735684 100.625783,432.017329 174.009436,416.587535 L174.514003,418.69571 C149.772003,423.897972 122.414665,425.631185 96.9522551,425.631185" id="Fill-18" fill="#8A837F" mask="url(#mask-4)"></path>
        <path d="M88.5756031,276.754843 C83.4836819,276.754843 79.3420283,280.627697 79.3420283,285.392067 C79.3420283,290.155126 83.4836819,294.027979 88.5756031,294.027979 C93.6675244,294.027979 97.809178,290.155126 97.809178,285.392067 C97.809178,280.627697 93.6675244,276.754843 88.5756031,276.754843 M88.5756031,296.187285 C82.2124535,296.187285 77.0350362,291.344252 77.0350362,285.392067 C77.0350362,279.438571 82.2124535,274.594226 88.5756031,274.594226 C94.9387528,274.594226 100.11617,279.438571 100.11617,285.392067 C100.11617,291.344252 94.9387528,296.187285 88.5756031,296.187285" id="Fill-19" fill="#8A837F" mask="url(#mask-4)"></path>
        <path d="M91.6607496,126.216609 C89.5261512,124.892445 87.2920409,123.932753 85.3929071,122.52337 C84.4622614,121.848177 83.5988913,121.003859 83.1097417,120.141185 C82.9793953,119.902573 82.8700724,119.610208 82.749537,119.346686 C82.6990803,119.169694 82.5981669,118.857663 82.5631276,118.615118 C82.4636157,118.09463 82.4720252,117.564964 82.5603244,117.053653 C82.8910961,114.967766 84.8238677,113.30535 86.9220252,112.912033 C89.0384031,112.517406 91.1001197,113.217509 92.4792693,114.303062 C93.7897417,115.316506 94.4190488,117.069386 93.8261827,118.384373 C93.1898677,119.746558 91.6425291,120.463704 90.3460724,120.379797 C89.0201827,120.320799 87.9563874,119.566943 87.6340252,118.784244 C87.5709543,118.641339 87.5499307,118.50499 87.5289071,118.371262 C87.8877102,118.797355 88.4189071,119.085787 89.0440094,119.085787 C90.1288283,119.085787 91.0076157,118.263756 91.0076157,117.246378 C91.0076157,116.232933 90.1288283,115.410902 89.0440094,115.410902 C88.5941039,115.410902 88.2002614,115.574784 87.8694898,115.812085 L87.8414583,115.789797 C87.8414583,115.798974 87.7924031,115.835684 87.7097102,115.914347 C87.6704661,115.948434 87.6396315,115.983833 87.6031906,116.020542 C87.5008756,116.122805 87.3747339,116.257843 87.2107496,116.467612 C86.8589543,116.934347 86.3305606,117.897972 86.7650488,119.088409 C87.179915,120.242136 88.5086079,121.280491 90.2465606,121.461416 C91.9704976,121.682985 94.0882772,120.808512 95.189915,119.007123 C96.3111748,117.141494 95.8108126,114.404013 93.7785291,112.850414 C91.8331433,111.380722 89.0131748,110.923165 86.5744346,111.737329 C84.1763402,112.462342 81.9184031,114.316172 81.4600882,116.880594 C81.3451591,117.505967 81.3535685,118.147072 81.4404661,118.775067 C81.483915,119.108075 81.5455843,119.358486 81.6577102,119.743936 C81.7712378,120.019257 81.859537,120.285401 81.9968913,120.5699 C82.6276,121.806224 83.5456315,122.687252 84.5421512,123.494861 C86.5071591,125.09828 88.8519937,126.160234 90.8212063,127.38738 C92.6810961,128.69319 94.6727339,129.964913 94.9250173,132.154373 C95.1801039,134.217972 93.8458047,136.196352 92.2241827,136.992162 C90.6235843,137.853524 88.6487654,137.759129 87.2682142,137.073447 C85.8358047,136.377278 85.409726,135.140954 85.6886394,133.95445 C85.8666394,133.142907 86.6445134,132.584398 87.3102614,132.396918 C87.2401827,132.567355 87.1925291,132.74828 87.1925291,132.943627 C87.1925291,133.774835 87.9129386,134.448717 88.801537,134.448717 C89.4070173,134.448717 89.9129858,134.123576 90.1876945,133.667329 L90.1975055,133.66864 C90.1862929,133.667329 90.2017102,133.647663 90.2269386,133.613576 C90.2493638,133.570311 90.2759937,133.534913 90.2942142,133.491648 C90.3544819,133.380208 90.4049386,133.201905 90.413348,132.944938 L90.413348,132.943627 L90.413348,132.938383 C90.4161512,132.824321 90.4217575,132.712882 90.3965291,132.563422 C90.2185291,131.70337 89.1000724,130.992779 87.8050173,130.958692 C86.3613953,130.940337 84.6851118,131.767612 84.0894425,133.599154 C83.8792063,134.388409 83.7895055,135.380877 84.2253953,136.324835 C84.6542772,137.259617 85.4840094,138.043627 86.4581039,138.505118 C88.3642457,139.446455 91.0230331,139.580183 93.0721354,138.199643 C95.0707811,136.785015 95.9593795,134.379231 95.7127024,132.054733 C95.6173953,130.936404 95.2361669,129.694835 94.5031433,128.66828 C93.7827339,127.620748 92.7091276,126.881314 91.6607496,126.216609" id="Fill-20" fill="#8A837F" mask="url(#mask-4)"></path>
        <path d="M91.6607496,154.286537 C89.5261512,152.961062 87.2920409,152.002681 85.3929071,150.591987 C84.4622614,149.916794 83.5988913,149.072476 83.1097417,148.211113 C82.9793953,147.97119 82.8700724,147.680136 82.749537,147.416614 C82.6990803,147.239622 82.5981669,146.927591 82.5631276,146.685046 C82.4636157,146.164558 82.4720252,145.633581 82.5603244,145.12227 C82.8910961,143.036383 84.8238677,141.375278 86.9220252,140.981961 C89.0384031,140.587334 91.1001197,141.286126 92.4792693,142.37299 C93.7897417,143.386434 94.4190488,145.138003 93.8261827,146.454301 C93.1898677,147.816486 91.6425291,148.533632 90.3460724,148.449725 C89.0201827,148.390728 87.9563874,147.63556 87.6340252,146.852861 C87.5709543,146.709956 87.5499307,146.574918 87.5289071,146.44119 C87.8877102,146.865972 88.4189071,147.155715 89.0440094,147.155715 C90.1288283,147.155715 91.0076157,146.333684 91.0076157,145.316306 C91.0076157,144.302861 90.1288283,143.479519 89.0440094,143.479519 C88.5941039,143.479519 88.2002614,143.644712 87.8694898,143.882013 L87.8414583,143.859725 C87.8414583,143.867591 87.7924031,143.905612 87.7097102,143.984275 C87.6704661,144.017051 87.6396315,144.05245 87.6031906,144.089159 C87.5008756,144.192733 87.3747339,144.32646 87.2107496,144.53754 C86.8589543,145.004275 86.3305606,145.9679 86.7650488,147.159648 C87.179915,148.312064 88.5086079,149.349108 90.2465606,149.531344 C91.9704976,149.752913 94.0882772,148.877129 95.189915,147.077051 C96.3111748,145.210111 95.8108126,142.473941 93.7785291,140.920342 C91.8331433,139.45065 89.0131748,138.993093 86.5744346,139.805946 C84.1763402,140.53227 81.9184031,142.384789 81.4600882,144.949211 C81.3451591,145.574584 81.3535685,146.217 81.4404661,146.844995 C81.483915,147.178003 81.5455843,147.427103 81.6577102,147.813864 C81.7712378,148.087874 81.859537,148.355329 81.9968913,148.638517 C82.6276,149.874841 83.5456315,150.75718 84.5421512,151.564789 C86.5071591,153.168208 88.8519937,154.228851 90.8212063,155.457308 C92.6810961,156.761807 94.6727339,158.034841 94.9250173,160.22299 C95.1801039,162.289211 93.8458047,164.264969 92.2241827,165.060779 C90.6235843,165.923452 88.6487654,165.829057 87.2682142,165.143375 C85.8358047,164.447206 85.409726,163.209571 85.6886394,162.024378 C85.8666394,161.212835 86.6445134,160.653015 87.3102614,160.466846 C87.2401827,160.637283 87.1925291,160.818208 87.1925291,161.012244 C87.1925291,161.843452 87.9129386,162.517334 88.801537,162.517334 C89.4070173,162.517334 89.9129858,162.193504 90.1876945,161.735946 L90.1975055,161.738568 C90.1862929,161.735946 90.2017102,161.71628 90.2269386,161.683504 C90.2493638,161.640239 90.2759937,161.604841 90.2942142,161.561576 C90.3544819,161.448825 90.4049386,161.271833 90.413348,161.014866 L90.413348,161.012244 L90.413348,161.008311 C90.4161512,160.894249 90.4217575,160.78281 90.3965291,160.63335 C90.2185291,159.773298 89.1000724,159.062707 87.8050173,159.02862 C86.3613953,159.010265 84.6851118,159.83754 84.0894425,161.669082 C83.8792063,162.458337 83.7895055,163.449494 84.2253953,164.394763 C84.6542772,165.329545 85.4840094,166.113555 86.4581039,166.575046 C88.3642457,167.515072 91.0230331,167.650111 93.0721354,166.269571 C95.0707811,164.854943 95.9593795,162.449159 95.7127024,160.124661 C95.6173953,159.005021 95.2361669,157.764763 94.5031433,156.738208 C93.7827339,155.689365 92.7091276,154.949931 91.6607496,154.286537" id="Fill-21" fill="#8A837F" mask="url(#mask-4)"></path>
        <path d="M91.6607496,182.355154 C89.5261512,181.03099 87.2920409,180.072609 85.3929071,178.661915 C84.4622614,177.986722 83.5988913,177.142404 83.1097417,176.281041 C82.9793953,176.039807 82.8700724,175.750064 82.749537,175.486542 C82.6990803,175.308239 82.5981669,174.997519 82.5631276,174.753663 C82.4636157,174.233175 82.4720252,173.703509 82.5603244,173.192198 C82.8910961,171.106311 84.8238677,169.443895 86.9220252,169.050578 C89.0384031,168.655951 91.1001197,169.356054 92.4792693,170.441607 C93.7897417,171.455051 94.4190488,173.207931 93.8261827,174.524229 C93.1898677,175.886414 91.6425291,176.60356 90.3460724,176.519653 C89.0201827,176.460656 87.9563874,175.705488 87.6340252,174.922789 C87.5709543,174.779884 87.5499307,174.644846 87.5289071,174.509807 C87.8877102,174.9359 88.4189071,175.224332 89.0440094,175.224332 C90.1288283,175.224332 91.0076157,174.40099 91.0076157,173.384923 C91.0076157,172.371478 90.1288283,171.549447 89.0440094,171.549447 C88.5941039,171.549447 88.2002614,171.713329 87.8694898,171.951941 L87.8414583,171.928342 C87.8414583,171.937519 87.7924031,171.97554 87.7097102,172.052892 C87.6704661,172.086979 87.6396315,172.122378 87.6031906,172.159087 C87.5008756,172.262661 87.3747339,172.396388 87.2107496,172.607468 C86.8589543,173.074203 86.3305606,174.036517 86.7650488,175.228265 C87.179915,176.381992 88.5086079,177.419036 90.2465606,177.601272 C91.9704976,177.82153 94.0882772,176.947057 95.189915,175.146979 C96.3111748,173.280039 95.8108126,170.542558 93.7785291,168.99027 C91.8331433,167.519267 89.0131748,167.06171 86.5744346,167.875874 C84.1763402,168.602198 81.9184031,170.454717 81.4600882,173.019139 C81.3451591,173.644512 81.3535685,174.286928 81.4404661,174.913612 C81.483915,175.247931 81.5455843,175.49572 81.6577102,175.882481 C81.7712378,176.157802 81.859537,176.423946 81.9968913,176.708445 C82.6276,177.944769 83.5456315,178.825797 84.5421512,179.633406 C86.5071591,181.236825 88.8519937,182.298779 90.8212063,183.524614 C92.6810961,184.831735 94.6727339,186.104769 94.9250173,188.292918 C95.1801039,190.356517 93.8458047,192.334897 92.2241827,193.130707 C90.6235843,193.99338 88.6487654,193.898985 87.2682142,193.211992 C85.8358047,192.517134 85.409726,191.279499 85.6886394,190.094306 C85.8666394,189.281452 86.6445134,188.722943 87.3102614,188.535463 C87.2401827,188.707211 87.1925291,188.888136 87.1925291,189.082172 C87.1925291,189.91338 87.9129386,190.587262 88.801537,190.587262 C89.4070173,190.587262 89.9129858,190.262121 90.1876945,189.805874 L90.1975055,189.807185 C90.1862929,189.805874 90.2017102,189.786208 90.2269386,189.752121 C90.2493638,189.710167 90.2759937,189.674769 90.2942142,189.630193 C90.3544819,189.518753 90.4049386,189.341761 90.413348,189.084794 L90.413348,189.082172 L90.413348,189.078239 C90.4161512,188.964177 90.4217575,188.852738 90.3965291,188.703278 C90.2185291,187.841915 89.1000724,187.131324 87.8050173,187.097237 C86.3613953,187.077571 84.6851118,187.907468 84.0894425,189.737699 C83.8792063,190.528265 83.7895055,191.519422 84.2253953,192.464692 C84.6542772,193.398162 85.4840094,194.182172 86.4581039,194.644974 C88.3642457,195.585 91.0230331,195.718728 93.0721354,194.339499 C95.0707811,192.92356 95.9593795,190.517776 95.7127024,188.194589 C95.6173953,187.074949 95.2361669,185.834692 94.5031433,184.808136 C93.7827339,183.759293 92.7091276,183.019859 91.6607496,182.355154" id="Fill-22" fill="#8A837F" mask="url(#mask-4)"></path>
        <path d="M91.6607496,210.424951 C89.5261512,209.100787 87.2920409,208.141095 85.3929071,206.731712 C84.4622614,206.056519 83.5988913,205.212201 83.1097417,204.349527 C82.9793953,204.109604 82.8700724,203.81855 82.749537,203.555028 C82.6990803,203.378036 82.5981669,203.066005 82.5631276,202.82346 C82.4636157,202.302972 82.4720252,201.773306 82.5603244,201.261995 C82.8910961,199.176108 84.8238677,197.513692 86.9220252,197.120375 C89.0384031,196.725748 91.1001197,197.425851 92.4792693,198.511404 C93.7897417,199.524848 94.4190488,201.277728 93.8261827,202.592715 C93.1898677,203.9549 91.6425291,204.672046 90.3460724,204.588139 C89.0201827,204.529141 87.9563874,203.775285 87.6340252,202.992586 C87.5709543,202.849681 87.5499307,202.713332 87.5289071,202.579604 C87.8877102,203.005697 88.4189071,203.294129 89.0440094,203.294129 C90.1288283,203.294129 91.0076157,202.472098 91.0076157,201.45472 C91.0076157,200.441275 90.1288283,199.619244 89.0440094,199.619244 C88.5941039,199.619244 88.2002614,199.783126 87.8694898,200.020427 L87.8414583,199.998139 C87.8414583,200.007316 87.7924031,200.044026 87.7097102,200.122689 C87.6704661,200.156776 87.6396315,200.192175 87.6031906,200.228884 C87.5008756,200.331147 87.3747339,200.466185 87.2107496,200.675954 C86.8589543,201.142689 86.3305606,202.106314 86.7650488,203.296751 C87.179915,204.450478 88.5086079,205.488833 90.2465606,205.669758 C91.9704976,205.891326 94.0882772,205.016853 95.189915,203.215465 C96.3111748,201.349835 95.8108126,198.612355 93.7785291,197.058756 C91.8331433,195.589064 89.0131748,195.131506 86.5744346,195.945671 C84.1763402,196.670684 81.9184031,198.524514 81.4600882,201.087625 C81.3451591,201.714308 81.3535685,202.355414 81.4404661,202.983409 C81.483915,203.316416 81.5455843,203.566828 81.6577102,203.952278 C81.7712378,204.227599 81.859537,204.493743 81.9968913,204.778242 C82.6276,206.014566 83.5456315,206.895594 84.5421512,207.703203 C86.5071591,209.306622 88.8519937,210.368576 90.8212063,211.595722 C92.6810961,212.900221 94.6727339,214.173254 94.9250173,216.362715 C95.1801039,218.427625 93.8458047,220.404694 92.2241827,221.200504 C90.6235843,222.061866 88.6487654,221.96747 87.2682142,221.281789 C85.8358047,220.586931 85.409726,219.349296 85.6886394,218.162792 C85.8666394,217.351249 86.6445134,216.79274 87.3102614,216.60526 C87.2401827,216.777008 87.1925291,216.956622 87.1925291,217.151969 C87.1925291,217.983177 87.9129386,218.657059 88.801537,218.657059 C89.4070173,218.657059 89.9129858,218.331918 90.1876945,217.875671 L90.1975055,217.876982 C90.1862929,217.875671 90.2017102,217.856005 90.2269386,217.821918 C90.2493638,217.778653 90.2759937,217.743254 90.2942142,217.69999 C90.3544819,217.58855 90.4049386,217.410247 90.413348,217.15328 L90.413348,217.151969 L90.413348,217.146725 C90.4161512,217.032663 90.4217575,216.921224 90.3965291,216.771763 C90.2185291,215.911712 89.1000724,215.201121 87.8050173,215.167033 C86.3613953,215.147368 84.6851118,215.975954 84.0894425,217.807496 C83.8792063,218.596751 83.7895055,219.587907 84.2253953,220.533177 C84.6542772,221.467959 85.4840094,222.250658 86.4581039,222.71346 C88.3642457,223.654797 91.0230331,223.788524 93.0721354,222.407985 C95.0707811,220.993357 95.9593795,218.587573 95.7127024,216.263075 C95.6173953,215.144746 95.2361669,213.903177 94.5031433,212.876622 C93.7827339,211.82909 92.7091276,211.089656 91.6607496,210.424951" id="Fill-23" fill="#8A837F" mask="url(#mask-4)"></path>
        <path d="M91.6607496,238.494879 C89.5261512,237.169404 87.2920409,236.211023 85.3929071,234.800329 C84.4622614,234.125136 83.5988913,233.282129 83.1097417,232.419455 C82.9793953,232.179532 82.8700724,231.888478 82.749537,231.624956 C82.6990803,231.447964 82.5981669,231.135933 82.5631276,230.893388 C82.4636157,230.3729 82.4720252,229.841923 82.5603244,229.330612 C82.8910961,227.244725 84.8238677,225.58362 86.9220252,225.190303 C89.0384031,224.795676 91.1001197,225.495779 92.4792693,226.581332 C93.7897417,227.594776 94.4190488,229.346344 93.8261827,230.662643 C93.1898677,232.024828 91.6425291,232.741974 90.3460724,232.658067 C89.0201827,232.599069 87.9563874,231.843902 87.6340252,231.061203 C87.5709543,230.918298 87.5499307,230.78326 87.5289071,230.648221 C87.8877102,231.074314 88.4189071,231.364057 89.0440094,231.364057 C90.1288283,231.364057 91.0076157,230.542026 91.0076157,229.524648 C91.0076157,228.511203 90.1288283,227.687861 89.0440094,227.687861 C88.5941039,227.687861 88.2002614,227.853054 87.8694898,228.090355 L87.8414583,228.068067 C87.8414583,228.075933 87.7924031,228.113954 87.7097102,228.192617 C87.6704661,228.225393 87.6396315,228.260792 87.6031906,228.297501 C87.5008756,228.401075 87.3747339,228.534802 87.2107496,228.745882 C86.8589543,229.212617 86.3305606,230.176242 86.7650488,231.366679 C87.179915,232.520406 88.5086079,233.55745 90.2465606,233.739686 C91.9704976,233.961254 94.0882772,233.08547 95.189915,231.285393 C96.3111748,229.418452 95.8108126,226.682283 93.7785291,225.128684 C91.8331433,223.658992 89.0131748,223.201434 86.5744346,224.014288 C84.1763402,224.740612 81.9184031,226.594442 81.4600882,229.157553 C81.3451591,229.782925 81.3535685,230.425342 81.4404661,231.053337 C81.483915,231.386344 81.5455843,231.635445 81.6577102,232.022206 C81.7712378,232.296216 81.859537,232.563671 81.9968913,232.846859 C82.6276,234.083183 83.5456315,234.965522 84.5421512,235.77182 C86.5071591,237.37655 88.8519937,238.437193 90.8212063,239.66565 C92.6810961,240.970149 94.6727339,242.243183 94.9250173,244.431332 C95.1801039,246.497553 93.8458047,248.474622 92.2241827,249.269121 C90.6235843,250.131794 88.6487654,250.037398 87.2682142,249.351717 C85.8358047,248.655548 85.409726,247.417913 85.6886394,246.23272 C85.8666394,245.421177 86.6445134,244.861357 87.3102614,244.675188 C87.2401827,244.845625 87.1925291,245.02655 87.1925291,245.220586 C87.1925291,246.051794 87.9129386,246.725676 88.801537,246.725676 C89.4070173,246.725676 89.9129858,246.401846 90.1876945,245.944288 L90.1975055,245.94691 C90.1862929,245.944288 90.2017102,245.924622 90.2269386,245.891846 C90.2493638,245.848581 90.2759937,245.813183 90.2942142,245.768607 C90.3544819,245.657167 90.4049386,245.480175 90.413348,245.223208 L90.413348,245.220586 L90.413348,245.216653 C90.4161512,245.102591 90.4217575,244.991152 90.3965291,244.841692 C90.2185291,243.980329 89.1000724,243.271049 87.8050173,243.236961 C86.3613953,243.217296 84.6851118,244.045882 84.0894425,245.876113 C83.8792063,246.666679 83.7895055,247.657835 84.2253953,248.603105 C84.6542772,249.537887 85.4840094,250.320586 86.4581039,250.783388 C88.3642457,251.723414 91.0230331,251.858452 93.0721354,250.477913 C95.0707811,249.063285 95.9593795,246.657501 95.7127024,244.333003 C95.6173953,243.213362 95.2361669,241.973105 94.5031433,240.94655 C93.7827339,239.899018 92.7091276,239.158272 91.6607496,238.494879" id="Fill-24" fill="#8A837F" mask="url(#mask-4)"></path>
        <path d="M91.6607496,266.294599 C89.5261512,264.969123 87.2920409,264.010743 85.3929071,262.600049 C84.4622614,261.924856 83.5988913,261.080537 83.1097417,260.219175 C82.9793953,259.979252 82.8700724,259.688198 82.749537,259.424676 C82.6990803,259.247684 82.5981669,258.935653 82.5631276,258.691797 C82.4636157,258.17262 82.4720252,257.641643 82.5603244,257.130332 C82.8910961,255.044445 84.8238677,253.383339 86.9220252,252.988712 C89.0384031,252.595396 91.1001197,253.294188 92.4792693,254.37974 C93.7897417,255.394496 94.4190488,257.146064 93.8261827,258.462362 C93.1898677,259.824548 91.6425291,260.541694 90.3460724,260.457787 C89.0201827,260.398789 87.9563874,259.643622 87.6340252,258.860923 C87.5709543,258.718018 87.5499307,258.582979 87.5289071,258.447941 C87.8877102,258.874033 88.4189071,259.163776 89.0440094,259.163776 C90.1288283,259.163776 91.0076157,258.340434 91.0076157,257.324368 C91.0076157,256.309612 90.1288283,255.487581 89.0440094,255.487581 C88.5941039,255.487581 88.2002614,255.652774 87.8694898,255.890075 L87.8414583,255.867787 C87.8414583,255.875653 87.7924031,255.913674 87.7097102,255.992337 C87.6704661,256.025113 87.6396315,256.060512 87.6031906,256.097221 C87.5008756,256.200794 87.3747339,256.334522 87.2107496,256.545602 C86.8589543,257.012337 86.3305606,257.97465 86.7650488,259.166398 C87.179915,260.320126 88.5086079,261.35717 90.2465606,261.539406 C91.9704976,261.760974 94.0882772,260.88519 95.189915,259.085113 C96.3111748,257.218172 95.8108126,254.482003 93.7785291,252.928404 C91.8331433,251.458712 89.0131748,250.999843 86.5744346,251.814008 C84.1763402,252.540332 81.9184031,254.392851 81.4600882,256.957272 C81.3451591,257.582645 81.3535685,258.225062 81.4404661,258.853057 C81.483915,259.186064 81.5455843,259.433853 81.6577102,259.821925 C81.7712378,260.095936 81.859537,260.363391 81.9968913,260.646578 C82.6276,261.882902 83.5456315,262.765242 84.5421512,263.57154 C86.5071591,265.17627 88.8519937,266.236913 90.8212063,267.464059 C92.6810961,268.769869 94.6727339,270.042902 94.9250173,272.231051 C95.1801039,274.297272 93.8458047,276.273031 92.2241827,277.068841 C90.6235843,277.931514 88.6487654,277.837118 87.2682142,277.151437 C85.8358047,276.455267 85.409726,275.217632 85.6886394,274.03244 C85.8666394,273.220897 86.6445134,272.661077 87.3102614,272.474907 C87.2401827,272.645344 87.1925291,272.82627 87.1925291,273.020306 C87.1925291,273.851514 87.9129386,274.525396 88.801537,274.525396 C89.4070173,274.525396 89.9129858,274.200254 90.1876945,273.744008 L90.1975055,273.74663 C90.1862929,273.744008 90.2017102,273.724342 90.2269386,273.691566 C90.2493638,273.648301 90.2759937,273.612902 90.2942142,273.568326 C90.3544819,273.456887 90.4049386,273.279895 90.413348,273.022928 L90.413348,273.020306 L90.413348,273.016373 C90.4161512,272.902311 90.4217575,272.790871 90.3965291,272.641411 C90.2185291,271.780049 89.1000724,271.069458 87.8050173,271.03537 C86.3613953,271.017015 84.6851118,271.845602 84.0894425,273.675833 C83.8792063,274.466398 83.7895055,275.457555 84.2253953,276.402825 C84.6542772,277.336296 85.4840094,278.120306 86.4581039,278.583108 C88.3642457,279.523134 91.0230331,279.658172 93.0721354,278.277632 C95.0707811,276.863005 95.9593795,274.457221 95.7127024,272.132722 C95.6173953,271.013082 95.2361669,269.772825 94.5031433,268.74627 C93.7827339,267.697427 92.7091276,266.957992 91.6607496,266.294599" id="Fill-25" fill="#8A837F" mask="url(#mask-4)"></path>
        <path d="M90.5078142,98.5407841 C88.3732157,97.2166195 86.1391055,96.2582391 84.2399717,94.847545 C83.309326,94.1723522 82.4459559,93.3280334 81.9568063,92.466671 C81.8264598,92.225437 81.717137,91.9356941 81.5966016,91.6721722 C81.5461449,91.4938689 81.4452315,91.1831491 81.4101921,90.9392931 C81.3106803,90.4188046 81.3190898,89.8891388 81.407389,89.3778278 C81.7381606,87.2919409 83.6709323,85.6295244 85.7690898,85.2348972 C87.8854677,84.841581 89.9471843,85.5416838 91.3263339,86.6272365 C92.6368063,87.6406812 93.2661134,89.3935604 92.6732472,90.7098586 C92.0369323,92.0720437 90.4895937,92.7891902 89.193137,92.7052828 C87.8672472,92.6462853 86.803452,91.8911183 86.4810898,91.108419 C86.4180189,90.9655141 86.3969953,90.8304756 86.3759717,90.695437 C86.7347748,91.1215296 87.2659717,91.4099614 87.891074,91.4099614 C88.9758929,91.4099614 89.8546803,90.5866195 89.8546803,89.5705527 C89.8546803,88.557108 88.9758929,87.7350771 87.891074,87.7350771 C87.4411685,87.7350771 87.047326,87.8989589 86.7165543,88.1375707 L86.6885228,88.1139717 C86.6885228,88.1231491 86.6394677,88.1611697 86.5567748,88.2385219 C86.5175307,88.2726093 86.4866961,88.3080077 86.4502551,88.3447172 C86.3479402,88.4482905 86.2217984,88.582018 86.0578142,88.7930977 C85.7060189,89.2598329 85.1776252,90.2221465 85.6121134,91.4138946 C86.0269795,92.5676221 87.3556724,93.6046658 89.0936252,93.7869023 C90.8175622,94.0071594 92.9353417,93.1326864 94.0369795,91.3326093 C95.1582394,89.4656684 94.6578772,86.7281877 92.6255937,85.1758997 C90.6802079,83.7048972 87.8602394,83.2473393 85.4214992,84.0615039 C83.0234047,84.7878278 80.7654677,86.640347 80.3071528,89.2047686 C80.1922236,89.8301414 80.2006331,90.4725578 80.2875307,91.0992416 C80.3309795,91.4335604 80.3926488,91.6813496 80.5047748,92.0681105 C80.6183024,92.3434319 80.7066016,92.6095758 80.8439559,92.8940746 C81.4746646,94.1303985 82.3926961,95.0114267 83.3892157,95.819036 C85.3542236,97.422455 87.6990583,98.4844087 89.6682709,99.7102442 C91.5281606,101.017365 93.5197984,102.290398 93.7720819,104.478548 C94.0271685,106.542147 92.6928693,108.520527 91.0712472,109.316337 C89.4706488,110.17901 87.4958299,110.084614 86.1152787,109.397622 C84.6828693,108.702763 84.2567906,107.465129 84.5357039,106.279936 C84.7137039,105.467082 85.491578,104.908573 86.157326,104.721093 C86.0872472,104.892841 86.0395937,105.073766 86.0395937,105.267802 C86.0395937,106.09901 86.7600031,106.772892 87.6486016,106.772892 C88.2540819,106.772892 88.7600504,106.447751 89.0347591,105.991504 L89.0445701,105.992815 C89.0333575,105.991504 89.0487748,105.971838 89.0740031,105.937751 C89.0964283,105.895797 89.1230583,105.860398 89.1412787,105.815823 C89.2015465,105.704383 89.2520031,105.527391 89.2604126,105.270424 L89.2604126,105.267802 L89.2604126,105.263869 C89.2632157,105.149807 89.268822,105.038368 89.2435937,104.888907 C89.0655937,104.027545 87.947137,103.316954 86.6520819,103.282866 C85.2084598,103.263201 83.5321764,104.093098 82.9365071,105.923329 C82.7262709,106.713895 82.6365701,107.705051 83.0724598,108.650321 C83.5013417,109.583792 84.331074,110.367802 85.3051685,110.830604 C87.2113102,111.77063 89.8700976,111.904357 91.9192,110.525129 C93.9178457,109.10919 94.8064441,106.703406 94.5597669,104.380219 C94.4644598,103.260578 94.0832315,102.020321 93.3502079,100.993766 C92.6297984,99.9449229 91.5561921,99.2054884 90.5078142,98.5407841" id="Fill-26" fill="#8A837F" mask="url(#mask-4)"></path>
        <path d="M90.5078142,70.6537481 C88.3732157,69.3295835 86.1391055,68.3712031 84.2399717,66.960509 C83.309326,66.2853162 82.4459559,65.4409974 81.9568063,64.579635 C81.8264598,64.3397121 81.717137,64.0486581 81.5966016,63.7851362 C81.5461449,63.6068329 81.4452315,63.2961131 81.4101921,63.0522571 C81.3106803,62.5317686 81.3190898,62.0021028 81.407389,61.4907918 C81.7381606,59.4049049 83.6709323,57.7424884 85.7690898,57.3491722 C87.8854677,56.954545 89.9471843,57.6546478 91.3263339,58.7402005 C92.6368063,59.7536452 93.2661134,61.5065244 92.6732472,62.8228226 C92.0369323,64.1850077 90.4895937,64.9021542 89.193137,64.8182468 C87.8672472,64.7592494 86.803452,64.0040823 86.4810898,63.221383 C86.4180189,63.0784781 86.3969953,62.9434396 86.3759717,62.808401 C86.7347748,63.2344936 87.2659717,63.5229254 87.891074,63.5229254 C88.9758929,63.5229254 89.8546803,62.7008946 89.8546803,61.6835167 C89.8546803,60.670072 88.9758929,59.8480411 87.891074,59.8480411 C87.4411685,59.8480411 87.047326,60.0119229 86.7165543,60.2505347 L86.6885228,60.2269357 C86.6885228,60.2361131 86.6394677,60.2741337 86.5567748,60.3527969 C86.5175307,60.3855733 86.4866961,60.4209717 86.4502551,60.4576812 C86.3479402,60.5612545 86.2217984,60.694982 86.0578142,60.9060617 C85.7060189,61.3727969 85.1776252,62.3351105 85.6121134,63.5268586 C86.0269795,64.6805861 87.3556724,65.7176298 89.0936252,65.8998663 C90.8175622,66.1201234 92.9353417,65.2456504 94.0369795,63.4455733 C95.1582394,61.5786324 94.6578772,58.8411517 92.6255937,57.2888638 C90.6802079,55.8191722 87.8602394,55.3603033 85.4214992,56.1744679 C83.0234047,56.9007918 80.7654677,58.7533111 80.3071528,61.3177326 C80.1922236,61.9431054 80.2006331,62.5855219 80.2875307,63.2122057 C80.3309795,63.5465244 80.3926488,63.7943136 80.5047748,64.1810746 C80.6183024,64.4563959 80.7066016,64.7238509 80.8439559,65.0070386 C81.4746646,66.2433625 82.3926961,67.1243907 83.3892157,67.932 C85.3542236,69.535419 87.6990583,70.5973728 89.6682709,71.8245193 C91.5281606,73.130329 93.5197984,74.4033625 93.7720819,76.5915116 C94.0271685,78.6564216 92.6928693,80.633491 91.0712472,81.4293008 C89.4706488,82.2919743 87.4958299,82.1975784 86.1152787,81.5105861 C84.6828693,80.8157275 84.2567906,79.5780925 84.5357039,78.3928997 C84.7137039,77.5800463 85.491578,77.0215373 86.157326,76.8340566 C86.0872472,77.0058046 86.0395937,77.1867301 86.0395937,77.3807661 C86.0395937,78.2119743 86.7600031,78.885856 87.6486016,78.885856 C88.2540819,78.885856 88.7600504,78.5607147 89.0347591,78.1044679 L89.0445701,78.10709 C89.0333575,78.1044679 89.0487748,78.0848021 89.0740031,78.0520257 C89.0964283,78.0087609 89.1230583,77.9733625 89.1412787,77.9287866 C89.2015465,77.817347 89.2520031,77.6403548 89.2604126,77.3833882 L89.2604126,77.3807661 L89.2604126,77.3768329 C89.2632157,77.2627712 89.268822,77.1513316 89.2435937,77.0018715 C89.0655937,76.1418201 87.947137,75.4299177 86.6520819,75.3958303 C85.2084598,75.3774756 83.5321764,76.2060617 82.9365071,78.0362931 C82.7262709,78.8268586 82.6365701,79.8180154 83.0724598,80.7632853 C83.5013417,81.6967558 84.331074,82.4807661 85.3051685,82.9435681 C87.2113102,83.8835938 89.8700976,84.0173213 91.9192,82.6380925 C93.9178457,81.2221542 94.8064441,78.8176812 94.5597669,76.4931825 C94.4644598,75.3735424 94.0832315,74.1332853 93.3502079,73.1067301 C92.6297984,72.0578869 91.5561921,71.3184524 90.5078142,70.6537481" id="Fill-27" fill="#8A837F" mask="url(#mask-4)"></path>
        <path d="M90.5078142,42.7667121 C88.3732157,41.4425476 86.1391055,40.4841671 84.2399717,39.073473 C83.309326,38.3982802 82.4459559,37.5539614 81.9568063,36.692599 C81.8264598,36.4526761 81.717137,36.1616221 81.5966016,35.8981003 C81.5461449,35.7197969 81.4452315,35.4090771 81.4101921,35.1652211 C81.3106803,34.6447326 81.3190898,34.1150668 81.407389,33.6037558 C81.7381606,31.5178689 83.6709323,29.8554524 85.7690898,29.4621362 C87.8854677,29.067509 89.9471843,29.7676118 91.3263339,30.8531645 C92.6368063,31.8666093 93.2661134,33.6194884 92.6732472,34.9357866 C92.0369323,36.2979717 90.4895937,37.0151183 89.193137,36.9312108 C87.8672472,36.8722134 86.803452,36.1170463 86.4810898,35.334347 C86.4180189,35.1914422 86.3969953,35.0564036 86.3759717,34.921365 C86.7347748,35.3474576 87.2659717,35.6358895 87.891074,35.6358895 C88.9758929,35.6358895 89.8546803,34.8138586 89.8546803,33.7964807 C89.8546803,32.783036 88.9758929,31.9610051 87.891074,31.9610051 C87.4411685,31.9610051 87.047326,32.1248869 86.7165543,32.3634987 L86.6885228,32.3398997 C86.6885228,32.3490771 86.6394677,32.3870977 86.5567748,32.4644499 C86.5175307,32.4985373 86.4866961,32.5339357 86.4502551,32.5706452 C86.3479402,32.6742185 86.2217984,32.807946 86.0578142,33.0190257 C85.7060189,33.4857609 85.1776252,34.4480746 85.6121134,35.6398226 C86.0269795,36.7935501 87.3556724,37.8305938 89.0936252,38.0128303 C90.8175622,38.2330874 92.9353417,37.3586144 94.0369795,35.5585373 C95.1582394,33.6915964 94.6578772,30.9541157 92.6255937,29.4018278 C90.6802079,27.9321362 87.8602394,27.4732674 85.4214992,28.2874319 C83.0234047,29.0137558 80.7654677,30.8662751 80.3071528,33.4306967 C80.1922236,34.0560694 80.2006331,34.6984859 80.2875307,35.3251697 C80.3309795,35.6594884 80.3926488,35.9072776 80.5047748,36.2940386 C80.6183024,36.5693599 80.7066016,36.8368149 80.8439559,37.1200026 C81.4746646,38.3563265 82.3926961,39.2373548 83.3892157,40.044964 C85.3542236,41.648383 87.6990583,42.7103368 89.6682709,43.9361722 C91.5281606,45.2432931 93.5197984,46.5163265 93.7720819,48.7044756 C94.0271685,50.7680746 92.6928693,52.746455 91.0712472,53.5422648 C89.4706488,54.4049383 87.4958299,54.3105424 86.1152787,53.6235501 C84.6828693,52.9286915 84.2567906,51.6910566 84.5357039,50.5058638 C84.7137039,49.6930103 85.491578,49.1345013 86.157326,48.9470206 C86.0872472,49.1187686 86.0395937,49.2996941 86.0395937,49.4937301 C86.0395937,50.3249383 86.7600031,50.9988201 87.6486016,50.9988201 C88.2540819,50.9988201 88.7600504,50.6736787 89.0347591,50.2174319 L89.0445701,50.220054 C89.0333575,50.2174319 89.0487748,50.1977661 89.0740031,50.1636787 C89.0964283,50.1217249 89.1230583,50.0863265 89.1412787,50.0417506 C89.2015465,49.9303111 89.2520031,49.7533188 89.2604126,49.4963522 L89.2604126,49.4937301 L89.2604126,49.4897969 C89.2632157,49.3757352 89.268822,49.2642956 89.2435937,49.1148355 C89.0655937,48.253473 87.947137,47.5428817 86.6520819,47.5087943 C85.2084598,47.4904396 83.5321764,48.3190257 82.9365071,50.1492571 C82.7262709,50.9398226 82.6365701,51.9309794 83.0724598,52.8762494 C83.5013417,53.8097198 84.331074,54.5937301 85.3051685,55.0565321 C87.2113102,55.9965578 89.8700976,56.1302853 91.9192,54.7510566 C93.9178457,53.3351183 94.8064441,50.9306452 94.5597669,48.6061465 C94.4644598,47.4865064 94.0832315,46.2462494 93.3502079,45.2196941 C92.6297984,44.1708509 91.5561921,43.4314165 90.5078142,42.7667121" id="Fill-28" fill="#8A837F" mask="url(#mask-4)"></path>
        <path d="M89.628326,14.8796761 C87.4937276,13.5555116 85.2596173,12.5971311 83.3604835,11.186437 C82.4298378,10.5112442 81.5664677,9.66692545 81.0773181,8.80556298 C80.9469717,8.5656401 80.8376488,8.27458612 80.7171134,8.01106427 C80.6666567,7.83276093 80.5657433,7.52204113 80.5307039,7.27818509 C80.4311921,6.75769666 80.4396016,6.22803085 80.5279008,5.71671979 C80.8586724,3.6308329 82.7914441,1.96841645 84.8896016,1.57510026 C87.0059795,1.18047301 89.0676961,1.88057584 90.4468457,2.96612853 C91.7573181,3.97957326 92.3866252,5.73245244 91.7937591,7.04875064 C91.1574441,8.41093573 89.6101055,9.12808226 88.3136488,9.04417481 C86.9877591,8.98517738 85.9239638,8.23001028 85.6016016,7.44731105 C85.5385307,7.30440617 85.5175071,7.16936761 85.4964835,7.03432905 C85.8552866,7.46042159 86.3864835,7.74885347 87.0115858,7.74885347 C88.0964047,7.74885347 88.9751921,6.92682262 88.9751921,5.90944473 C88.9751921,4.896 88.0964047,4.07396915 87.0115858,4.07396915 C86.5616803,4.07396915 86.1678378,4.2378509 85.8370661,4.47646272 L85.8090346,4.45286375 C85.8090346,4.46204113 85.7599795,4.5000617 85.6772866,4.57741388 C85.6380425,4.61150129 85.6072079,4.64689974 85.5707669,4.68360925 C85.468452,4.78718252 85.3423102,4.92091003 85.178326,5.13198972 C84.8265307,5.59872494 84.298137,6.56103856 84.7326252,7.75278663 C85.1474913,8.90651414 86.4761843,9.94355784 88.214137,10.1257943 C89.938074,10.3460514 92.0558535,9.47157841 93.1574913,7.67150129 C94.2787512,5.80456041 93.778389,3.06707969 91.7461055,1.51479177 C89.8007197,0.0437892031 86.9807512,-0.413768638 84.542011,0.400395887 C82.1439165,1.12671979 79.8859795,2.97923907 79.4276646,5.54366067 C79.3127354,6.16903342 79.3211449,6.81144987 79.4080425,7.43813368 C79.4514913,7.77245244 79.5131606,8.02024165 79.6252866,8.40700257 C79.7388142,8.68232391 79.8271134,8.94977892 79.9644677,9.23296658 C80.5951764,10.4692905 81.5132079,11.3503188 82.5097276,12.157928 C84.4747354,13.761347 86.8195701,14.8233008 88.7887827,16.0491362 C90.6486724,17.3562571 92.6403102,18.6292905 92.8925937,20.8174396 C93.1476803,22.8810386 91.8133811,24.859419 90.1917591,25.6552288 C88.5911606,26.5179023 86.6163417,26.4235064 85.2357906,25.7365141 C83.8033811,25.0416555 83.3773024,23.8040206 83.6562157,22.6188278 C83.8342157,21.8059743 84.6120898,21.2474653 85.2778378,21.0599846 C85.2077591,21.2317326 85.1601055,21.4126581 85.1601055,21.6066941 C85.1601055,22.4379023 85.880515,23.1117841 86.7691134,23.1117841 C87.3745937,23.1117841 87.8805622,22.7866427 88.1552709,22.3303959 L88.1650819,22.3317069 C88.1538693,22.3303959 88.1692866,22.3107301 88.194515,22.2766427 C88.2169402,22.2346889 88.2435701,22.1992905 88.2617906,22.1547147 C88.3220583,22.0432751 88.372515,21.8662828 88.3809244,21.6093162 L88.3809244,21.6066941 L88.3809244,21.6027609 C88.3837276,21.4886992 88.3893339,21.3772596 88.3641055,21.2277995 C88.1861055,20.366437 87.0676488,19.6558458 85.7725937,19.6217584 C84.3289717,19.6020925 82.6526882,20.4319897 82.0570189,22.2622211 C81.8467827,23.0527866 81.7570819,24.0439434 82.1929717,24.9892134 C82.6218535,25.9226838 83.4515858,26.7066941 84.4256803,27.1694961 C86.331822,28.1095219 88.9906094,28.2432494 91.0397118,26.8640206 C93.0383575,25.4480823 93.9269559,23.0436093 93.6802787,20.7191105 C93.5849717,19.5994704 93.2037433,18.3592134 92.4707197,17.3326581 C91.7503102,16.2838149 90.6767039,15.5443805 89.628326,14.8796761" id="Fill-29" fill="#8A837F" mask="url(#mask-4)"></path>
    </g>
</svg>
