
<svg width="168px" height="61px" viewBox="636 4137 168 61" version="1.1" xmlns="http://www.w3.org/2000/svg" xmlns:xlink="http://www.w3.org/1999/xlink">
    <!-- Generator: Sketch 40 (33762) - http://www.bohemiancoding.com/sketch -->
    <desc>Created with Sketch.</desc>
    <defs>
        <polygon id="path-1" points="0 59.5419847 167.76623 59.5419847 167.76623 0.229923664 0 0.229923664"></polygon>
    </defs>
    <g id="Page-1" stroke="none" stroke-width="1" fill="none" fill-rule="evenodd" transform="translate(636.000000, 4137.000000)">
        <g id="Group-3" transform="translate(0.000000, 0.228092)">
            <mask id="mask-2" fill="white">
                <use xlink:href="#path-1"></use>
            </mask>
            <g id="Clip-2"></g>
            <path d="M94.0854332,47.9324885 C91.7827609,50.5706565 89.2813481,53.135542 86.6012119,55.6198168 C86.1043609,56.0805802 85.4924119,56.947145 84.7946757,57.2595115 C81.97728,58.5195115 81.0951013,57.2801221 79.5473566,56.2330992 C78.0339268,55.2089771 76.5662502,54.156916 75.1471864,53.0778321 C69.8834247,49.0747786 65.2737906,44.705771 61.4398162,40.0692824 C57.7352374,35.5885191 54.734114,30.8659237 52.5022162,25.9903511 C49.9736374,20.4676031 46.9346247,13.5414962 49.9057226,7.87951145 C51.4062843,5.02012214 54.8334843,2.31050382 59.5575013,1.64180153 C64.5910672,0.929129771 69.6703864,2.74378626 72.8902672,5.14607634 C78.5207694,9.34607634 80.5482077,15.6552366 82.7643779,21.1468397 C82.6600034,21.2709618 82.61568,21.4134046 82.669297,21.5599695 C82.353314,21.6479084 82.1016715,21.8214962 82.0730757,22.0669924 C82.0330417,22.4059237 82.0530587,22.9047023 82.1795949,23.4167634 C81.3903523,24.9144733 81.4382502,26.3705038 83.8846162,26.8326412 C85.6210928,27.1605802 87.0730417,26.1918779 87.2539098,25.1334046 C87.3697226,24.4532519 87.0816204,23.7534046 86.607646,23.0892824 C86.5819098,23.0109618 86.5483098,22.9335573 86.5139949,22.8556947 C86.5061311,22.8337099 86.4975523,22.8126412 86.4889736,22.7906565 C86.4946928,22.7233282 86.499697,22.6592061 86.5032715,22.6019542 C86.5211438,22.3294351 86.3274077,22.1251603 86.0528885,22.0005802 C86.2294672,21.7280611 86.4074757,21.456 86.586914,21.1839389 C86.8085311,20.947145 87.0251438,20.7085191 87.2195949,20.4607328 C87.3289736,20.3210382 87.3554247,20.1905038 87.3246843,20.0741679 C89.9769396,16.144855 93.0130928,12.2906565 97.5226417,9.12943511 C100.496599,7.04500763 106.558897,3.70607634 110.595186,6.64882443 C113.466914,8.74378626 112.443186,12.2998168 111.84768,14.8060763 C109.088191,26.4227176 103.020889,37.6940153 94.0854332,47.9324885 M167.765944,27.3465344 C167.757365,27.1152366 167.449246,26.9114198 167.147561,26.8207328 C164.79842,26.1172214 161.663612,26.1561527 159.109297,25.9683664 C155.874403,25.7306565 152.631646,25.5497405 149.383169,25.4068397 C148.967816,25.3885191 148.654693,25.5011908 148.462386,25.6674504 C147.375033,25.7329466 147.242778,26.8486718 148.448803,26.9989008 L152.421467,27.4930992 C154.070727,27.7541679 155.720701,28.0152366 157.370676,28.2763053 C157.70882,28.3445496 158.04482,28.4196641 158.381535,28.4920305 C141.553654,29.5537099 124.712906,30.5228702 107.860003,31.3940153 C110.998386,25.4301985 113.220276,19.2822595 114.306914,13.1027176 C114.73871,10.6482137 114.80305,7.64500763 112.095748,5.69065649 C109.175408,3.58241221 104.677297,4.00103817 101.248667,5.32653435 C93.2554417,8.41630534 88.6765481,14.5294351 85.0277311,20.1140153 C84.8933311,20.2234809 84.7517821,20.3439389 84.6059438,20.4744733 C82.2746757,14.7043969 80.1142672,8.1208855 73.8496545,3.84256489 C68.3242417,0.0689770992 59.4152374,-1.28629008 52.9997821,2.41126718 C45.5241396,6.71981679 46.2040034,13.6734046 47.9247523,19.4508092 C49.3881396,24.365771 51.6343353,29.1822595 54.5847013,33.8063817 C45.79008,33.3515725 36.95328,33.3602748 28.1615183,33.9039389 C27.9413311,33.9176794 27.7232885,33.9382901 27.5031013,33.9529466 C27.4501991,33.6909618 27.3965821,33.4289771 27.3429651,33.1665344 C27.2714757,32.8138626 27.1992715,32.4607328 27.1277821,32.1080611 C27.1156289,32.0389008 27.1041906,31.9770687 27.0941821,31.9207328 C27.1706757,31.8437863 27.2264374,31.7512672 27.249314,31.6408855 L27.2671864,31.5575267 C27.323663,31.2918779 27.0770247,30.936 26.6502332,30.8521832 C26.5973311,30.8416489 26.5444289,30.8311145 26.4915268,30.8205802 C25.9024545,30.7047023 25.4442077,30.8334046 25.1339438,31.176 C24.4955438,31.8795115 25.2776374,33.3543206 25.4449226,34.1059237 C23.8957481,34.2300458 22.350863,34.3660763 20.8088374,34.5172214 C20.6115268,33.484855 20.5550502,32.4584427 20.7659438,31.4686718 C20.9482417,30.6140153 18.8993566,30.4358473 18.7170587,31.2918779 C18.4789991,32.4117252 18.5526332,33.5650076 18.7828289,34.7196641 C17.4824374,34.8515725 16.182046,34.9843969 14.8787949,35.1135573 C14.7744204,33.9598168 14.790863,32.7987481 14.9467098,31.626229 C15.0610928,30.7697405 13.0129226,30.5879084 12.8985396,31.4494351 C12.7262502,32.7378321 12.7062332,34.0138626 12.8256204,35.2825649 C11.4001226,35.3604275 9.97462468,35.3599695 8.55127149,35.347145 C8.37540766,34.2190534 8.07872681,33.0978321 7.64192681,31.9807328 C7.31879489,31.1558473 5.26419064,31.326687 5.59161191,32.1630229 C6.00339064,33.2141679 6.29363745,34.2685191 6.47236085,35.3292824 C5.18841191,35.3201221 3.90732255,35.3297405 2.62980766,35.3979847 C2.46752681,34.6697405 2.2888034,33.9428702 2.07576511,33.2182901 C1.82841191,32.376 -0.22404766,32.5509618 0.0261651064,33.4005802 C0.239918298,34.1283664 0.419356596,34.8579847 0.581637447,35.5889771 C-0.321273191,35.8509618 -0.127537021,36.8100458 0.848292766,36.8668397 C1.06490553,38.0558473 1.21503319,39.2498931 1.29796085,40.4508092 C1.35729702,41.3109618 3.40689702,41.1254656 3.34756085,40.2680611 C3.26606298,39.0827176 3.11950979,37.9037863 2.90790128,36.7298931 C4.14538213,36.6689771 5.39072681,36.665313 6.64036085,36.6795115 C6.70470128,37.5543206 6.6904034,38.435084 6.59103319,39.3231756 C6.49523745,40.1792061 8.54340766,40.3624122 8.6399183,39.4999695 C8.74429277,38.5614962 8.76645447,37.6308092 8.7064034,36.7051603 C10.1397651,36.7221069 11.5745566,36.7175267 13.0043438,36.6272977 C13.2009396,37.7283664 13.506914,38.8239389 13.9337055,39.9167634 C14.2561226,40.7416489 16.3100119,40.5708092 15.9833055,39.7340153 C15.5572289,38.6434809 15.2519694,37.5492824 15.0568034,36.4500458 C16.4079523,36.3181374 17.7562417,36.1793588 19.1045311,36.0410382 C19.4698417,37.3184427 19.9573991,38.5821069 20.3620289,39.7885191 C20.6422672,40.6239389 22.6954417,40.4508092 22.4116289,39.606229 C22.007714,38.4025649 21.5008545,37.1251603 21.1305396,35.8353893 C22.6546928,35.6842443 24.1831353,35.5486718 25.7165821,35.4282137 C25.9346247,36.4995115 26.1526672,37.5712672 26.3699949,38.6425649 C26.543714,39.4963053 28.5947438,39.3172214 28.4203098,38.4602748 C28.2044119,37.3995115 27.988514,36.3387481 27.7726162,35.2784427 C36.8610587,34.686229 45.9973991,34.6729466 55.0922757,35.1721832 C55.2323949,35.1799695 55.3575013,35.1689771 55.473314,35.1488244 C56.1331609,36.1280611 56.8123098,37.1013435 57.5357821,38.0613435 C61.8944885,43.8474504 67.3777226,49.2808855 73.8575183,54.1605802 C75.4038332,55.324855 77.0066247,56.4570687 78.6616034,57.5567634 C79.779697,58.2992061 81.0679353,59.4456183 82.803697,59.5363053 C86.4174843,59.7245496 89.4643609,55.3111145 91.0106757,53.7708092 C97.5226417,47.2825649 103.013025,40.1819542 107.105791,32.7763053 C124.575646,31.8772214 142.033348,30.8723359 159.476037,29.7685191 C158.391544,30.9845496 157.23842,32.1721832 156.013093,33.3327939 C155.654216,33.6309618 155.290335,33.9259237 154.937893,34.2282137 C154.769178,34.3734046 154.703408,34.5176794 154.706267,34.6514198 C154.533978,35.255542 155.801484,35.7740153 156.525671,35.1891298 C156.564276,35.1575267 156.602165,35.1254656 156.640769,35.0938626 C156.767306,35.0695878 156.895271,35.0256183 157.018948,34.956 C159.497484,33.5723359 161.893808,32.1332519 164.182897,30.6181374 C165.558352,29.7076031 167.816701,28.7237863 167.765944,27.3465344" id="Fill-1" fill="#402C2E" mask="url(#mask-2)"></path>
        </g>
        <path d="M92.171234,40.8258321 C90.7342979,42.9469008 89.2544681,45.0588092 87.5844766,47.1098015 C87.111217,47.6910229 86.6179404,48.2658321 86.1125106,48.8360611 C87.2070128,47.2591145 88.3008,45.6821679 89.3953021,44.1052214 C90.0715915,43.3385038 90.7085617,42.5566718 91.3119319,41.7652214 C92.4007149,40.3357557 93.4523234,38.8829313 94.4760511,37.4204885 C93.7225532,38.5609466 92.9383149,39.6931603 92.171234,40.8258321 M77.5059064,46.5185038 C76.5794043,44.7175878 75.6593362,42.9157557 74.7378383,41.1143817 C75.1167319,41.6552977 75.4870468,42.1985038 75.8802383,42.7348397 C76.3985362,43.4438473 76.9089702,44.1858321 77.4437106,44.9246107 C78.2050723,46.8633893 78.9657191,48.8017099 79.7270809,50.7400305 C79.6355745,50.7757557 79.5562213,50.8220153 79.4904511,50.8769771 C78.6490213,49.3829313 78.1214298,47.7139237 77.5059064,46.5185038 M69.437617,28.3916336 C69.3496851,28.2166718 69.256034,28.042626 69.168817,27.8672061 C68.9007319,27.3262901 68.4203234,26.6887328 68.1822638,26.0901069 C68.5482894,26.7079695 68.9307574,27.3212519 69.323234,27.9322443 C69.3911489,28.074687 69.4612085,28.2162137 69.5298383,28.3581985 C69.4976681,28.3678168 69.4683574,28.3801832 69.437617,28.3916336 M101.254672,22.6801832 C101.082383,22.555145 100.901515,22.4511756 100.717072,22.3559084 C100.648443,22.3105649 100.589821,22.2615573 100.514757,22.2185038 C99.8048681,21.8154504 99.0535149,21.6606412 98.3329021,21.6817099 C97.5708255,21.4907176 96.6321702,21.5768244 95.5262298,22.1085802 C94.3981277,22.6508702 93.502366,23.364916 92.7696,24.172855 C91.6429277,24.9120916 90.679966,25.764458 89.893583,26.4633893 C88.0441532,28.1072061 86.0803404,29.9181985 84.8271319,31.8606412 C84.0193021,32.6516336 83.2901106,33.3927023 82.6710128,34.0371298 C81.4027915,32.1981985 79.9873021,30.4082748 78.3709277,28.6806412 C77.5588085,27.5846107 76.6130043,26.5192672 75.5170723,25.5807939 C73.133617,23.0566718 70.331234,20.8962137 67.9913872,21.1508702 C66.9154723,21.0322443 66.1791319,21.6395725 65.7737872,22.3962137 C65.4599489,22.8276641 65.3627234,23.3117863 65.3963234,23.8055267 C65.0989277,27.322626 67.4001702,31.0600305 69.0301277,34.3398779 C70.9732085,38.2499542 73.0013617,42.143542 75.0044936,46.0407939 C76.0139234,48.0052214 76.950434,49.9930076 78.0506553,51.9372824 C78.4216851,52.5931603 78.7827064,53.185374 79.3153021,53.7162137 C79.5555064,54.1669008 79.8386043,54.6056794 80.1696,55.0371298 C80.3161532,55.2272061 80.5213277,55.3330076 80.7443745,55.374229 C80.8108596,55.4241527 80.8666213,55.4777405 80.9366809,55.5267481 C81.3734809,55.8317863 82.3321532,55.7818626 82.6209702,55.3875115 C82.978417,54.8992672 83.314417,54.4050687 83.664,53.9149924 C83.7240511,53.8838473 83.7819574,53.8472061 83.8370043,53.8032366 C84.2466383,53.4785038 84.5754894,53.1432366 84.8357106,52.7919389 C85.1002213,52.5221679 85.3532936,52.2565191 85.6042213,52.013771 C87.2384681,50.4317863 88.6811234,48.7705649 90.0165447,47.0781985 C92.5572766,43.8592672 94.7491404,40.5189618 96.9131234,37.1901069 C98.5437957,34.6824733 100.132289,32.0241527 100.672749,29.2957557 C102.178315,27.1504122 103.448681,24.2685802 101.254672,22.6801832" id="Fill-4" fill="#402C2E"></path>
        <path d="M66.8007319,18.3440611 C64.2657191,13.9461985 61.8693957,9.51764885 59.6124766,5.0579542 C59.1885447,4.22024427 57.116783,4.57841221 57.5442894,5.42299237 C59.8012085,9.88268702 62.1975319,14.3112366 64.7325447,18.7095573 C65.2065191,19.5316947 67.2804255,19.1762748 66.8007319,18.3440611" id="Fill-6" fill="#402C2E"></path>
        <path d="M62.6592817,21.3452061 C60.9113668,20.5729924 59.7031966,19.4577252 58.249103,18.4867328 C56.965154,17.6293282 55.4788902,16.9455115 53.8117583,16.4270382 C52.5749923,16.0427634 51.4862094,17.2271908 52.7286945,17.6137557 C56.4318434,18.7647481 58.2784136,21.0745191 61.5769328,22.5314656 C62.7157583,23.0348244 63.7895285,21.8444427 62.6592817,21.3452061" id="Fill-8" fill="#402C2E"></path>
        <path d="M74.7712953,11.1595878 C74.8513634,10.2760763 72.7066826,10.2792824 72.6266145,11.1595878 C72.3864102,13.8078321 72.3513804,16.4533282 72.5208102,19.1034046 C72.5772868,19.984626 74.7219677,19.9892061 74.6654911,19.1034046 C74.4960613,16.4533282 74.5310911,13.807374 74.7712953,11.1595878" id="Fill-10" fill="#402C2E"></path>
        <path d="M96.0497464,18.0999847 C95.4671081,17.4253282 94.8844698,16.7511298 94.3018315,16.0764733 C93.633406,15.3028855 91.7804017,15.9949466 92.450257,16.7703664 C93.0328953,17.4445649 93.6155336,18.1192214 94.1981719,18.7934198 C94.8665974,19.5674656 96.7196017,18.8749466 96.0497464,18.0999847" id="Fill-12" fill="#402C2E"></path>
        <path d="M104.214046,9.08203053 C102.780684,12.8437099 100.961995,16.5174504 98.7493991,20.1211145 C98.2439694,20.9441679 100.317161,21.3009618 100.817586,20.4861527 C103.029467,16.8829466 104.848157,13.2092061 106.282233,9.44752672 C106.609654,8.58829008 104.542182,8.22187786 104.214046,9.08203053" id="Fill-14" fill="#402C2E"></path>
        <path d="M107.133529,18.191313 C105.301971,18.9259695 103.670584,19.8296336 102.299418,20.9004733 C101.430107,21.5783359 102.938533,22.5561985 103.815707,21.8719237 C105.07535,20.8890229 106.533018,20.052687 108.215877,19.3775725 C109.383299,18.9094809 108.308099,17.7204733 107.133529,18.191313" id="Fill-16" fill="#402C2E"></path>
        <path d="M105.165927,23.4819389 L105.016514,23.4819389 C104.456037,23.4819389 103.918437,23.7979695 103.944174,24.1689618 C103.970625,24.5413282 104.415289,24.8559847 105.016514,24.8559847 L105.165927,24.8559847 C105.727118,24.8559847 106.264003,24.5399542 106.238267,24.1689618 C106.212531,23.7965954 105.767152,23.4819389 105.165927,23.4819389" id="Fill-18" fill="#402C2E"></path>
        <path d="M61.8468051,25.7487481 C60.3076391,25.4194351 58.7298689,25.2307328 57.1113498,25.1597405 C55.7337498,25.0992824 55.7394689,26.4737863 57.1113498,26.5337863 C58.5397072,26.5965344 59.9194519,26.7829466 61.27632,27.0737863 C62.5888647,27.3545496 63.151486,26.0281374 61.8468051,25.7487481" id="Fill-20" fill="#402C2E"></path>
        <path d="M78.5859677,19.9685496 C77.971874,19.860458 77.4864613,20.1032061 77.2669889,20.4485496 C76.8723677,21.0682443 76.5749719,21.7039695 76.3712272,22.3607634 C76.103857,23.2245802 78.1706145,23.5941985 78.4394145,22.7262595 C78.6424443,22.0694656 78.9405549,21.4337405 79.3351762,20.8135878 C79.5539336,20.4700763 79.0971166,20.0583206 78.5859677,19.9685496" id="Fill-22" fill="#402C2E"></path>
        <path d="M92.6839557,21.4473893 C92.4959387,21.1002137 92.2543047,20.7709008 91.9190196,20.4727328 C91.5815898,20.1718168 90.9853685,20.0261679 90.4520579,20.2258626 C89.9880919,20.3999084 89.7278706,20.8634198 90.0674451,21.1661679 C90.1954111,21.2802137 90.3140834,21.3970076 90.417743,21.5211298 C90.4341855,21.5408244 90.4449089,21.5545649 90.457777,21.5701374 C90.5106791,21.6507481 90.5628664,21.7318168 90.6157685,21.8128855 C90.8388153,22.1545649 91.3256579,22.3996031 91.9347472,22.2924275 C92.4666281,22.1989924 92.8748323,21.7996031 92.6839557,21.4473893" id="Fill-24" fill="#402C2E"></path>
        <path d="M63.427006,30.1757405 C62.129474,30.3305496 60.8276528,30.3658168 59.5115336,30.3103969 C58.1332187,30.251771 58.1389379,31.6262748 59.5115336,31.6844427 C61.0221038,31.7481069 62.5097974,31.6780305 63.9974911,31.5007786 C65.3522145,31.3390992 64.7781549,30.0145191 63.427006,30.1757405" id="Fill-26" fill="#402C2E"></path>
        <path d="M64.4284289,33.8339542 C63.8650928,33.8728855 63.3446502,33.8605191 62.8292119,33.7817405 C62.2665906,33.6960916 61.6675098,33.8953282 61.5102332,34.2617405 C61.3608204,34.6107481 61.693246,35.0202137 62.2594417,35.1067786 C62.9707609,35.2153282 63.7006672,35.2579237 64.4284289,35.208 C65.0039183,35.1681527 65.5007694,34.9208244 65.5007694,34.5209771 C65.5007694,34.1802137 65.0082077,33.7941069 64.4284289,33.8339542" id="Fill-28" fill="#402C2E"></path>
        <path d="M104.503292,28.092229 L104.069351,28.092229 C103.50816,28.092229 102.971275,28.4082595 102.997011,28.7792519 C103.022747,29.1516183 103.468126,29.4662748 104.069351,29.4662748 L104.503292,29.4662748 C105.064483,29.4662748 105.601369,29.1502443 105.575632,28.7792519 C105.549896,28.4068855 105.104517,28.092229 104.503292,28.092229" id="Fill-30" fill="#402C2E"></path>
        <path d="M103.201256,31.7997252 C101.821511,31.7997252 101.818652,33.173771 103.201256,33.173771 C104.581001,33.173771 104.58386,31.7997252 103.201256,31.7997252" id="Fill-32" fill="#402C2E"></path>
        <path d="M66.1757004,38.4929771 C66.0284323,38.1494656 65.4079047,37.8948092 64.8567217,38.0129771 C64.7115983,38.0441221 64.5671898,38.0752672 64.4227813,38.1059542 C63.873743,38.2236641 63.5141515,38.579542 63.6735728,38.9514504 C63.8208409,39.2949618 64.4413685,39.5491603 64.9925515,39.4309924 C65.1376749,39.4003053 65.2820834,39.3691603 65.4264919,39.3380153 C65.9755302,39.2203053 66.3351217,38.8644275 66.1757004,38.4929771" id="Fill-34" fill="#402C2E"></path>
        <path d="M69.6724596,42.2892824 C69.2613957,42.0259237 68.5665191,42.0259237 68.1561702,42.2892824 C68.1075574,42.3199695 68.0596596,42.3511145 68.0110468,42.3818015 C67.6014128,42.6442443 67.6014128,43.0912672 68.0110468,43.3537099 C68.4221106,43.6166107 69.1169872,43.6166107 69.5280511,43.3537099 L69.6724596,43.2607328 C70.0820936,42.9982901 70.0820936,42.5517252 69.6724596,42.2892824" id="Fill-36" fill="#402C2E"></path>
        <path d="M99.150526,36.3414046 C97.7707813,36.3414046 97.7679217,37.7154504 99.150526,37.7154504 C100.530271,37.7154504 100.53313,36.3414046 99.150526,36.3414046" id="Fill-38" fill="#402C2E"></path>
        <path d="M98.1378077,40.4196641 C96.758063,40.4196641 96.7552034,41.7937099 98.1378077,41.7937099 C99.5175523,41.7937099 99.5204119,40.4196641 98.1378077,40.4196641" id="Fill-40" fill="#402C2E"></path>
    </g>
</svg>
