<!-- Generator: Adobe Illustrator 19.0.0, SVG Export Plug-In  -->
<svg version="1.1"
	 xmlns="http://www.w3.org/2000/svg" xmlns:xlink="http://www.w3.org/1999/xlink" xmlns:a="http://ns.adobe.com/AdobeSVGViewerExtensions/3.0/"
	 x="0px" y="0px" width="162.9px" height="39px" viewBox="0 0 162.9 39" style="enable-background:new 0 0 162.9 39;"
	 xml:space="preserve">
<style type="text/css">
	.st0{fill:#58453A;}
</style>
<defs>
</defs>
<g id="XMLID_16_">
	<g id="XMLID_29_">
		<path id="XMLID_30_" class="st0" d="M51.9,17.3c-0.2,2.1-0.5,4.1-0.7,6.2c-0.2,1.9,2.8,1.9,3,0c0.2-2.1,0.5-4.1,0.7-6.2
			C55.1,15.4,52.1,15.4,51.9,17.3z"/>
	</g>
	<g id="XMLID_27_">
		<path id="XMLID_28_" class="st0" d="M96.3,37.2c-1-5.4-1.9-10.8-2.5-16.2c-0.2-1.9-3.2-1.9-3,0c0.7,5.7,1.6,11.4,2.6,17
			C93.7,39.8,96.6,39,96.3,37.2z"/>
	</g>
	<g id="XMLID_25_">
		<path id="XMLID_26_" class="st0" d="M120,23.4c-0.5-1.3-0.9-2.7-1.1-4.1c-0.1-0.8-0.6-1.5-1.5-1.5c-0.7,0-1.6,0.7-1.5,1.5
			c0.2,1.7,0.6,3.3,1.2,4.9c0.3,0.7,1,1.3,1.8,1C119.7,25.1,120.3,24.2,120,23.4z"/>
	</g>
	<g id="XMLID_23_">
		<path id="XMLID_24_" class="st0" d="M20,10.8c-2.8,4.4-5.4,8.9-7.6,13.6c-0.8,1.7,1.8,3.3,2.6,1.5c2.2-4.7,4.7-9.2,7.6-13.6
			C23.7,10.7,21.1,9.2,20,10.8z"/>
	</g>
	<g id="XMLID_21_">
		<path id="XMLID_22_" class="st0" d="M149.5,14.3c-1-1-1.9-2.1-2.5-3.5c-0.3-0.7-1-1.3-1.8-1c-0.7,0.2-1.4,1.1-1,1.8
			c0.8,1.8,1.8,3.4,3.2,4.8C148.8,17.8,150.9,15.6,149.5,14.3z"/>
	</g>
	<g id="XMLID_19_">
		<path id="XMLID_20_" class="st0" d="M5.3,0.5c-1.7,2-3.3,4-5,6c-1.2,1.5,0.9,3.6,2.1,2.1c1.7-2,3.3-4,5-6C8.7,1.2,6.6-1,5.3,0.5z"
			/>
	</g>
	<g id="XMLID_17_">
		<path id="XMLID_18_" class="st0" d="M162.7,3.9c-0.7-1.1-1.3-2.1-2-3.2c-1-1.6-3.6-0.1-2.6,1.5c0.7,1.1,1.3,2.1,2,3.2
			C161.1,7.1,163.7,5.6,162.7,3.9z"/>
	</g>
</g>
</svg>
