
<svg width="317px" height="92px" viewBox="562 1508 317 92" version="1.1" xmlns="http://www.w3.org/2000/svg" xmlns:xlink="http://www.w3.org/1999/xlink">
    <!-- Generator: Sketch 39.1 (31720) - http://www.bohemiancoding.com/sketch -->
    <desc>Created with Sketch.</desc>
    <defs></defs>
    <g id="Page-1" stroke="none" stroke-width="1" fill="none" fill-rule="evenodd" transform="translate(562.691432, 1508.000000)">
        <path d="M101.039067,40.279302 L99.6572313,54.5177752 C99.2295201,58.9318403 105.039425,58.8972473 105.463265,54.5177752 C105.923877,49.7716175 106.384489,45.0254597 106.845101,40.279302 C107.272813,35.8652369 101.462908,35.9021361 101.039067,40.279302" id="Fill-1" fill="#583A3A"></path>
        <g id="Group-5" transform="translate(175.533099, 45.075406)" fill="#583A3A">
            <path d="M11.3274738,40.9109172 C9.38438777,28.5035661 7.74321548,16.0477847 6.43492248,3.52281741 C5.97818114,-0.838205084 0.166341072,-0.893553862 0.62888845,3.52281741 C2.00298317,16.6612337 3.69060373,29.7327702 5.72852168,42.7512641 C6.41363369,47.1215114 12.0106505,45.2696335 11.3274738,40.9109172" id="Fill-3"></path>
        </g>
        <path d="M232.878618,54.2627096 C231.829661,51.2346702 231.047781,48.0636464 230.736191,44.8003747 C230.560075,42.9438844 229.528536,41.341076 227.833174,41.341076 C226.401019,41.341076 224.752105,42.9323534 224.930157,44.8003747 C225.303678,48.7209131 226.01395,52.4500371 227.279665,56.1030565 C227.877687,57.8280934 229.207269,59.0572975 230.850376,58.5176469 C232.2206,58.0702443 233.48051,55.9992775 232.878618,54.2627096" id="Fill-6" fill="#583A3A"></path>
        <path d="M39.325764,25.1995273 C33.8100317,35.2407182 28.9252217,45.6854939 24.6577867,56.5569164 C23.0843515,60.5673967 28.0891528,64.0843503 29.6722647,60.0485019 C33.9377644,49.1770793 38.8225744,38.7323036 44.3383067,28.6911127 C46.3917074,24.9550702 41.3656173,21.4842405 39.325764,25.1995273" id="Fill-28" fill="#583A3A"></path>
        <path d="M289.885743,33.2905962 C287.87492,31.0374397 286.19117,28.3691673 285.130601,25.3111473 C284.530645,23.5861104 283.202998,22.3569063 281.557955,22.8965569 C280.189666,23.3439595 278.927822,25.4126201 279.531649,27.1514942 C280.985093,31.341858 282.995916,35.0617571 285.780877,38.1820445 C288.500036,41.2331459 292.614579,36.3486162 289.885743,33.2905962" id="Fill-30" fill="#583A3A"></path>
        <path d="M10.9019373,1.49894976 C7.69507119,6.14824714 4.48820506,10.7975445 1.28133893,15.4468419 C-1.07397554,18.8600166 3.01153707,23.7837517 5.38620499,20.3405964 C8.59307112,15.6889928 11.7999373,11.0396954 15.0068034,6.39039805 C17.3621179,2.97722338 13.2766052,-1.9442055 10.9019373,1.49894976" id="Fill-36" fill="#583A3A"></path>
        <path d="M315.418359,9.32895694 C314.117807,6.8590177 312.819191,4.38677227 311.518639,1.91683303 C309.538781,-1.8468839 304.512691,1.62163955 306.506096,5.40841847 C307.804713,7.88066391 309.105264,10.3506031 310.405816,12.8205424 C312.385673,16.5842593 317.411764,13.1157359 315.418359,9.32895694" id="Fill-38" fill="#583A3A"></path>
    </g>
</svg>
