
<svg width="286px" height="115px" viewBox="578 1018 286 115" version="1.1" xmlns="http://www.w3.org/2000/svg" xmlns:xlink="http://www.w3.org/1999/xlink">
    <!-- Generator: Sketch 39.1 (31720) - http://www.bohemiancoding.com/sketch -->
    <desc>Created with Sketch.</desc>
    <defs></defs>
    <g id="Group-2" stroke="none" stroke-width="1" fill="none" fill-rule="evenodd" transform="translate(578.691432, 1018.000000)">
        <path d="M27.7913828,80.5113595 C25.6462047,76.0598111 23.502547,71.6082627 21.357369,67.1567144 C20.603288,65.5915471 19.4022315,64.8041327 18.2376628,65.857239 C17.2692161,66.7340226 16.6717285,69.2629272 17.4197282,70.8136022 C19.5633859,75.2651505 21.708564,79.7166989 23.853742,84.1682473 C24.607823,85.7334146 25.8073591,86.520829 26.9734481,85.4677226 C27.9418949,84.5933544 28.5378622,82.0620345 27.7913828,80.5113595" id="Fill-13" fill="#58443A"></path>
        <path d="M90.282285,46.624669 C88.6600986,36.2964972 87.4803267,25.8692946 86.7870587,15.2778461 C86.4875547,10.6862056 81.9220199,10.6354826 82.2260848,15.2778461 C82.9619219,26.5117861 84.1629784,37.5911417 85.8839859,48.5521436 C86.5939775,53.073738 90.9937969,51.1583404 90.282285,46.624669" id="Fill-15" fill="#58443A"></path>
        <path d="M141.66631,45.1238822 C140.988245,40.5877954 136.589946,42.5080239 137.268011,47.0513567 C137.614645,49.3628769 137.63897,51.6599049 137.447409,54.014902 C137.289295,55.9568688 138.608937,57.6379744 139.727896,57.6379744 C141.091627,57.6379744 141.850269,55.964115 142.008383,54.014902 C142.251635,51.0294903 142.104163,48.0489093 141.66631,45.1238822" id="Fill-17" fill="#58443A"></path>
        <g id="Group-21" transform="translate(211.934980, 0.000000)" fill="#583A3A">
            <path d="M13.2920433,2.55015994 C8.579037,17.5279415 4.3190874,32.8124765 0.486349015,48.4110111 C-0.580918872,52.7562827 3.82802254,54.6402804 4.88464816,50.3360703 C8.57447602,35.3196427 12.6945558,20.6268761 17.2296841,6.20704774 C18.5386836,2.04776055 14.6056038,-1.62603492 13.2920433,2.55015994" id="Fill-19"></path>
        </g>
        <path d="M260.971213,48.9603492 C259.514742,52.6558831 258.059792,56.3490016 256.603321,60.0445355 C255.040427,64.0081768 258.98567,67.6505723 260.540962,63.7014233 C261.997433,60.0058894 263.453904,56.3127709 264.908854,52.617237 C266.471748,48.6535957 262.526506,45.0136156 260.971213,48.9603492" id="Fill-22" fill="#58443A"></path>
        <path d="M282.886653,75.3072155 C281.834588,74.328986 280.370516,74.8941853 279.766947,76.6066908 C279.082801,78.5438269 278.155403,80.3553631 277.120061,81.5896232 C276.136411,82.7610833 275.630143,84.7199578 276.302127,86.5459863 C276.869208,88.0869998 278.430581,89.0265832 279.421833,87.8454616 C281.170206,85.7634026 282.629718,83.3069595 283.704587,80.2635786 C284.308156,78.5583192 283.963043,76.3071835 282.886653,75.3072155" id="Fill-24" fill="#58443A"></path>
        <path d="M10.2729157,107.7632 C7.9863475,106.115909 5.69977926,104.468619 3.41321103,102.821329 C2.29273178,102.014591 0.95940708,102.311683 0.293504894,104.120804 C-0.27965749,105.67631 -0.0166413299,108.265599 1.11143954,109.079583 C3.39800778,110.726873 5.68457602,112.371748 7.97114425,114.019038 C9.0916235,114.828191 10.4249482,114.531099 11.0908504,112.719563 C11.6624924,111.166472 11.3994763,108.574768 10.2729157,107.7632" id="Fill-26" fill="#58443A"></path>
        <path d="M175.669351,33.3025749 C175.137237,36.7251707 174.956319,40.2226433 175.219335,43.7249467 C175.365286,45.6669135 176.163456,47.3480192 177.499822,47.3480192 C178.618781,47.3480192 179.92778,45.6814058 179.780309,43.7249467 C179.564422,40.840981 179.628276,38.0487999 180.06765,35.2300495 C180.77156,30.7012089 176.374781,28.771319 175.669351,33.3025749" id="Fill-32" fill="#58443A"></path>
        <path d="M58.5978019,59.5716538 C56.9710546,55.2988437 55.0782504,51.3013871 52.9573976,47.6155147 C50.9733739,44.1663497 47.7548467,49.3014511 49.732789,52.7409546 C51.5982274,55.9823967 53.2295357,59.4702078 54.6601611,63.2285417 C56.1759248,67.2139214 60.1226875,63.5763566 58.5978019,59.5716538" id="Fill-34" fill="#58443A"></path>
    </g>
</svg>
