<!-- Generator: Adobe Illustrator 19.0.0, SVG Export Plug-In  -->
<svg version="1.1"
	 xmlns="http://www.w3.org/2000/svg" xmlns:xlink="http://www.w3.org/1999/xlink" xmlns:a="http://ns.adobe.com/AdobeSVGViewerExtensions/3.0/"
	 x="0px" y="0px" width="122.8px" height="118.2px" viewBox="0 0 122.8 118.2" style="enable-background:new 0 0 122.8 118.2;"
	 xml:space="preserve">
<style type="text/css">
	.st0{fill:none;stroke:#000000;stroke-width:2;stroke-linecap:round;stroke-linejoin:round;stroke-miterlimit:10;}
	.st1{stroke:#000000;stroke-miterlimit:10;}
</style>
<defs>
</defs>
<g>
	<line class="st0" x1="5.8" y1="1" x2="117.2" y2="112.4"/>
	<polyline class="st0" points="20.3,5.8 5.8,1 10.3,15.7 	"/>
	<polyline class="st0" points="110.9,96.4 101.1,96.3 100.9,106.3 	"/>
	<polyline class="st0" points="116.3,101.8 106.6,101.8 106.4,111.8 	"/>
	<polyline class="st0" points="121.8,107.2 112,107.2 111.8,117.2 	"/>
</g>
<g>
	<line class="st0" x1="117.2" y1="1.2" x2="5.8" y2="112.6"/>
	<polyline class="st0" points="112.5,15.7 117.2,1.2 102.5,5.8 	"/>
	<polyline class="st0" points="21.9,106.3 21.9,96.5 11.9,96.4 	"/>
	<polyline class="st0" points="16.4,111.8 16.4,102 6.4,101.8 	"/>
	<polyline class="st0" points="11,117.2 11,107.4 1,107.2 	"/>
</g>
<g>
	<g>
		<path class="st1" d="M21.2,65.4c0,0.1,0,0.3,0,0.6s0,0.5-0.1,0.8s0,0.5,0,0.8c0.1,0.4,0.3,1,0.6,1.6c0,0.1,0.2,0.3,0.5,0.6
			c0.1,0,0.2,0,0.3,0.1c0.1,0,0.2,0.1,0.3,0.1c0.1,0,0.2,0,0.5,0c0.3-0.1,0.4-0.1,0.5-0.2c0.1-0.1,0.3-0.2,0.5-0.4
			c0.3-0.3,0.6-0.6,0.9-0.7c0.5-0.4,0.9-0.8,1.3-1.1c0.4-0.1,0.6-0.1,0.8-0.1c0.1,0,0.3,0.1,0.4,0.3c0.3,0.4,0.4,0.9,0.3,1.5
			c-0.2,0.7-0.6,1.3-1.1,1.9c-0.1,0.2-0.3,0.3-0.5,0.5c0,0-0.1,0.2-0.2,0.3l-0.7,0.7c-0.1,0-0.2,0.1-0.3,0.2c0,0.1-0.4,0.3-0.9,0.5
			c-0.7,0-1.4-0.1-1.9-0.2c-1.2-0.3-2.1-0.6-2.6-1l-0.7-0.4c0-0.1-0.3-0.2-0.7-0.4l-0.5-0.6l-0.5-0.6L17,69.5
			c-0.1-0.1-0.1-0.3-0.1-0.6c0-0.3-0.1-0.5-0.1-0.7c0-0.1,0-0.3,0-0.8c0-0.2,0.1-0.5,0.1-0.8c0-0.1,0-0.3,0-0.8l0-0.3V65
			c0-0.4,0-0.8,0.1-1.2c0.1-0.4,0.2-0.9,0.3-1.4c0-0.3,0-0.6,0.1-0.8c-0.1-0.2-0.1-0.7,0-1.6v-0.2c0-0.2,0-0.4,0-0.6V59l0.1-2.2
			c0-0.1,0.1-0.4,0.2-0.9c0-0.3,0.1-0.8,0.3-1.4c0.1-0.2,0.2-0.4,0.2-0.6c0-0.1,0-0.4,0.1-0.7c0.1-0.1,0.2-0.5,0.3-1
			c0,0,0.1-0.3,0.2-0.8c0-0.3,0.1-0.6,0.4-1c0-0.1,0.3-0.3,0.6-0.5h0c0.1,0,0.5-0.1,1.1-0.2c0.3,0,0.7,0.1,1.1,0.3
			c0.1,0,0.5,0.2,1,0.5c0.3,0.3,0.2,1.1-0.3,2.3c0,0.2-0.1,0.5-0.3,1c0,0.2,0,0.5-0.1,0.8c0,0.2-0.2,1.1-0.5,2.6
			S21.5,61.4,21.2,65.4z"/>
	</g>
</g>
<g>
	<g>
		<path class="st1" d="M54.5,21.6l0.3-2.7c0-0.1,0.1-0.4,0.2-0.6c0.1-0.3,0.2-0.5,0.2-0.5c0,0,0-0.1,0.1-0.3c0-0.6,0.2-1.2,0.5-1.7
			c0.6-1.3,1-2.2,1.3-2.8c0.3-0.6,0.6-1.1,0.9-1.5c0-0.1,0.3-0.3,0.8-0.6c1-0.5,1.9-0.8,2.8-0.8s1.7,0.1,2.5,0.4
			c0.3,0,0.6,0.2,1.1,0.5c0.4,0.3,0.7,0.5,0.8,0.5c0.4,0.2,0.8,0.8,1.3,1.5c0.4,0.8,0.7,1.3,0.7,1.7c0,0.4,0.2,0.9,0.4,1.7
			s0.4,1.4,0.4,1.7c0,0.4,0.1,0.9,0.2,1.7c0.1,0.7,0.2,1.3,0.2,1.8c-0.1,3.4-0.6,5.8-1.3,7.3c-0.1,1.1-0.4,1.7-0.8,2l-0.1,0.5
			c0,0.3-0.2,0.6-0.4,1c-0.3,0.4-0.6,0.6-1,0.8c-0.1,0.1-0.6,0.2-1.4,0.3c-1.3,0.2-2.1,0.4-2.5,0.4c-0.5,0.2-1.2,0.1-2-0.1
			c-0.8-0.2-1.3-0.3-1.4-0.4s-0.4-0.1-0.8-0.4c-0.4-0.3-0.7-0.5-0.8-0.6c-0.4-0.3-0.6-0.5-0.7-0.7l-0.5-1c-0.3-0.3-0.5-0.8-0.6-1.4
			c-0.1-0.6-0.2-1-0.4-1.1c-0.1-0.3-0.2-0.5-0.3-0.8c0-0.2,0-0.5,0-0.9v-0.4c-0.1-0.4-0.1-0.7,0.1-1c0-0.2,0-0.4,0.1-0.6
			s0-0.6,0.1-1.1V23C54.4,22.3,54.5,21.8,54.5,21.6z M58.6,24.2l0.1,3.2c0.4,1.4,0.9,2.3,1.7,2.9c0.1,0.1,0.4,0.3,0.8,0.4l0.9,0.2
			c0.1,0,0.3,0,0.4-0.1c0.2,0,0.3-0.1,0.4-0.2c0.2-0.2,0.3-0.4,0.5-0.6s0.2-0.3,0.2-0.3c0.1-0.1,0.1-0.3,0.1-0.5
			c0.1-0.1,0.2-0.2,0.3-0.5c0.3-1.3,0.5-2.2,0.8-2.6c0.1-1.1,0.1-1.7,0.1-2c0-1-0.3-2.2-0.8-3.7c-0.3-0.3-0.4-1.4-0.4-3.2
			c-0.1-0.4-0.2-0.7-0.3-1c0-0.3-0.1-0.6-0.2-1s-0.2-0.6-0.3-0.7c-0.1-0.1-0.1-0.2-0.1-0.3c0-0.1-0.1-0.2-0.2-0.4
			c-0.4-0.6-1-0.3-1.8,0.9l-0.6,1.1c0,0-0.1,0.5-0.4,1.3c-0.4,1.3-0.6,2.1-0.6,2.2c0,0.2-0.1,0.7-0.4,1.5c0,0.1,0,0.2,0,0.5
			c0,0.3,0,0.6-0.1,1.1C58.7,23,58.6,23.6,58.6,24.2z"/>
	</g>
</g>
<g>
	<g>
		<path class="st1" d="M100.4,56.4l0.3,1.7v0.8c0.2,0.6,0.4,1.3,0.5,2c0.4,2.2,0.6,3.5,0.6,3.8c0,0.3,0.1,0.6,0.2,0.9
			c0.1,0.3,0.1,0.5,0,0.5c0,0.2,0,0.4,0.1,0.5c0,0.1,0,0.2,0.1,0.3c0,0.1,0.1,0.1,0.1,0.2c0,0,0.1,0,0.1,0c0.1-0.1,0.3-0.6,0.6-1.5
			c0.3-0.6,0.5-1.2,0.6-1.7c0-0.3,0.2-0.7,0.3-1.4c0.2-0.5,0.3-1,0.5-1.4c0.2-0.4,0.3-0.8,0.4-1.3c0.1-0.5,0.1-0.7,0.1-0.8
			s0.1-0.2,0.1-0.3c0.2-0.7,0.4-1.2,0.4-1.6s0-0.8,0.1-1.2c0-0.6,0.2-1.4,0.5-2.4c0,0,0.1-0.3,0.2-0.9c0.1-0.5,0.3-1,0.5-1.5
			c0.4-1,1.1-1.7,2.1-2.1c0.4-0.1,0.9-0.2,1.3-0.2c0.5,0,0.8,0.1,1,0.2c0.2,0.1,0.3,0.4,0.3,0.8c0,0.1-0.1,0.4-0.1,0.7l-1.1,3.5
			l-0.5,1.2l-0.4,0.9c0,0-0.1,0.2-0.2,0.4l-0.4,1.2c0,0.4-0.1,0.6-0.2,0.7l-0.6,2c-0.1,0.1-0.2,0.4-0.3,0.9
			c-0.2,0.6-0.4,1.1-0.5,1.4c-0.2,0.5-0.3,0.8-0.3,1s-0.1,0.5-0.2,0.8c-0.1,0.3-0.2,0.5-0.2,0.6c0,0-0.1,0.2-0.2,0.5
			c-0.1,0.3-0.1,0.6-0.1,0.9c-0.1,0-0.1,0.3-0.1,0.6c-0.1,0.3-0.2,0.8-0.3,1.3c-0.1,0.2-0.2,0.5-0.2,0.9c-0.2,0.9-0.6,1.6-0.9,2.1
			c-0.4,0.5-0.9,0.8-1.7,1c-0.7,0.2-1.2,0.2-1.5,0c-0.1,0-0.3,0-0.5-0.1c-0.1,0-0.2,0-0.3-0.1c-0.2,0-0.4-0.1-0.8-0.3
			c-0.3-0.1-0.5-0.3-0.7-0.5c-0.2-0.2-0.4-0.5-0.7-0.8c0-0.1-0.2-0.4-0.4-0.7c-0.1-0.6-0.2-1-0.3-1.1c0-0.1-0.1-0.2-0.1-0.3
			l-0.2-0.9c0,0,0,0.1,0.1,0.1c0-0.7-0.1-1.3,0-1.7c-0.1-0.2-0.1-0.6,0-1.1c0-0.4,0-0.7-0.1-1c-0.3-0.7-0.4-1.1-0.4-1.4
			c0-0.3-0.1-0.7-0.1-1.3c0-0.6,0-1.2-0.1-1.6l-0.6-3.5c-0.1-0.8-0.2-1.2-0.2-1.4c0-0.1,0-0.2,0-0.3c0,0,0-0.1,0-0.2
			c0-0.1,0-0.3-0.1-0.5c-0.2-0.4-0.3-0.7-0.3-0.9c-0.9-2.1-0.7-3.3,0.5-3.5c0.1,0,0.5-0.1,1-0.1c0.5,0,0.8,0,1,0.1
			c0.1,0,0.3,0.1,0.5,0.3c0.6,0.3,0.9,1.7,1.2,4c0.2,1.2,0.3,2,0.3,2.1S100.4,56.2,100.4,56.4z"/>
	</g>
</g>
<g>
	<g>
		<path class="st1" d="M60,105.2v1.4c0,1.5,0.1,2.3,0.3,2.5c0,0,0,0.3,0.2,0.9c0,0.2,0.1,0.5,0.3,0.9c0,0.1,0.3,0.4,1,0.9
			c0.3,0,1-0.2,2.1-0.7l2.6-1c0.3-0.1,0.6-0.1,0.9,0.1c0.3,0.2,0.4,0.5,0.5,0.9s0,0.8,0,1s-0.3,0.4-0.6,0.7
			c-0.3,0.3-0.5,0.5-0.6,0.6s-0.3,0.2-0.5,0.4c-0.3,0.1-0.6,0.3-0.9,0.4c-0.3,0.1-0.5,0.3-0.7,0.3c-0.9,0.4-1.7,0.6-2.2,0.5
			c-0.3,0-0.6-0.1-1-0.2c-0.3-0.1-0.5-0.2-0.5-0.2s-0.1,0-0.3,0c-0.2,0-0.3-0.1-0.5-0.1s-0.5-0.1-1.1-0.2c0-0.1-0.2-0.2-0.5-0.3
			l-1-0.8c-0.2-0.1-0.3-0.4-0.5-0.9l-0.3-0.5c-0.1-0.1-0.2-0.3-0.4-0.8c-0.1-0.1-0.2-0.3-0.2-0.6c-0.1-0.3-0.2-0.6-0.2-1.1
			c-0.1-0.1-0.2-0.6-0.3-1.4c-0.2-1-0.2-2,0-2.8c0-0.5,0.1-0.9,0.3-1.3c0-0.2,0-0.4,0.1-0.6c0.1-0.6,0.2-1.1,0.3-1.4
			c-0.1-0.3,0.1-1.1,0.5-2.4c0-0.2,0.1-0.5,0.2-0.8c0.2-0.4,0.2-0.8,0.3-1.2l0.3-0.7c0-0.2,0.2-0.9,0.5-2.1c0.2-0.5,0.3-0.7,0.3-0.8
			l0.9-1.9l0.4-0.6c0.2-0.2,0.4-0.3,0.8-0.4c0.1-0.1,0.5-0.1,1.2,0c0.4,0.1,0.6,0.3,0.8,0.4c0.2,0.1,0.4,0.1,0.6,0.1l2.8-0.2
			c0.7,0,1.2,0.1,1.4,0.2c0.2,0.1,0.5,0.3,0.7,0.6c0.2,0.3,0.3,0.5,0.3,0.8c-0.1,0.3-0.2,0.5-0.3,0.6c-0.3,0.3-0.9,0.6-1.7,0.9
			c-1.5,0.8-2.3,1.2-2.4,1.3L62.6,96c-0.4,0.2-0.6,0.5-0.7,0.8c-0.7,2.7-1.1,4.2-1.2,4.5c-0.1,0.3-0.1,0.5-0.1,0.5
			c0,0.1,0,0.1,0,0.1l0.7-0.1c1.1-0.3,1.7-0.4,1.9-0.3c0.1,0,0.2,0,0.4-0.1c0.9-0.3,1.7-0.4,2.3-0.4c0.1-0.1,0.3,0,0.4,0.1
			c0.1,0.2,0.3,0.4,0.3,0.6c0.1,0.6,0,1.1-0.5,1.4c-1,0.7-2.2,1.2-3.6,1.6c-0.5,0.4-1.1,0.6-1.9,0.7L60,105.2z"/>
	</g>
</g>
</svg>
