<?xml version="1.0" encoding="utf-8"?>
<!-- Generator: Adobe Illustrator 19.0.0, SVG Export Plug-In . SVG Version: 6.00 Build 0)  -->
<svg version="1.1" id="Capa_1" xmlns="http://www.w3.org/2000/svg" xmlns:xlink="http://www.w3.org/1999/xlink" x="0px" y="0px"
	 viewBox="9 15.8 586 393.7" style="enable-background:new 9 15.8 586 393.7;" xml:space="preserve">
<style type="text/css">
	.st0{fill:#523D3D;}
</style>
<g>
	<path class="st0" d="M594.3,253.5c-0.6-2.5-2.1-4.4-4.5-5.1c-2.6-0.8-5.2-0.6-7.7,0.5c-1.9,0.9-2.9,2.5-2.7,4.7
		c0.2,1.6,0.5,3.2,1.2,4.7c0.7,1.6,1.3,3.3,1.9,5c0.3,0.9,0.3,1.7-0.2,2.6c-1.7,3.3-3,6.9-6.4,8.9c-0.4,0.2-0.7,0.5-1,0.8
		c-3.4,4.1-8,5.8-12.7,7.6c-3,1.1-6,0.9-9.1,0.7c-1.3-0.1-2.5-0.6-3.6-1.5c-0.3-0.3-0.6-0.7-0.3-1.1c0.5-0.9,1-1.8,1.5-2.7
		c2-3.6,4-7.3,5.1-11.4c0.9-3.2,1.2-6.5,0.7-9.8c-0.4-3.2-2.7-5-5.7-4.9c-2.5,0.1-4.5,1.2-6.1,3.1c-3.6,4.4-5.8,9.3-5.7,15.1
		c0.1,2.3,0.5,4.5,0.8,6.7c0.9,1.2,1.8,2.3,1.6,3.9c-0.2,1.3-1.1,2.1-1.8,3c-2.4,3.1-4.9,6-7.1,9.1c-2.1,2.9-5.2,4.8-7.5,7.5
		c-3.8,4.2-8.2,7.7-12.6,11.1c-4.6,3.5-9.6,6.3-14.9,8.7c-5.5,2.6-11.3,2.8-17.2,2.5c-1.1-0.1-1.5-0.9-0.8-1.9c2.1-2.9,3.9-6,6.9-8
		c1.7-1.1,3-2.8,4.2-4.6c3.5-5.2,7.1-10.3,11.3-14.9c1-1.1,1.9-2.3,2.7-3.5c3.2-5.3,2.2-14.4-2-18.9c-1.3-1.4-2.8-2.2-4.6-2.2
		c-2.1,0-4,0.2-6,0.9c-5.3,1.8-10.1,4.8-15,7.5c-1.6,0.8-2.7,2.3-3.8,3.7c-4.9,6.5-8.3,13.7-9.9,21.8c-0.6,3.2-1.1,6.5-1.6,9.8
		c-0.5,3.6,0.4,7.2,1.1,10.7c0.2,1,0.1,1.7-0.7,2.4c-5.9,5.1-11.8,10.4-19.2,13.3c-0.1,0.1-0.3,0-0.4,0c-0.7-0.4-1.1-1.1-1.1-1.8
		c-0.2-3.9-1.6-7.6-1.3-11.6c0.2-2.4,0-4.8-0.4-7.2c-0.3-1.6-0.3-3.3-0.3-4.9c0-8.8,0-17.7,0.2-26.5c0.1-4.9,0.6-9.9,1-14.8
		c0.5-6,1-11.9,1.5-17.9c0.4-4.2,0.8-8.3,1.2-12.5c0.2-2.2,0.4-4.5,0.6-6.7c0.1-0.9,0-1.8,0.6-2.5c0.3-2.1,0.6-4.1,0.9-6.2
		c0.3-2.2,0.4-4.4,1.4-6.6c2.9,0,5.7,0,8.4-0.1c9.4-0.4,18.2-2.5,26.4-7.5c1.2-0.8,2.6-1.4,3.9-2c7.4-3.2,13.7-8,18.8-14.4
		c0.9-1.1,2-2.1,3.1-3.2c7.3-7.2,13.1-15.4,15.6-25.6c0.5-2.2,1.1-4.4,1.6-6.5c0.7-3,1.1-6.3,2.3-9.1c1.5-3.4,2-6.8,2-10.5
		c0-2.8-0.1-5.7,0-8.5c0.1-3-0.3-6-0.8-8.9c-1.1-6.6-3.7-12.6-8.3-17.6c-1.7-1.9-3.5-3.6-5.5-5.1c-0.7-0.5-1.3-1.1-1.2-2.2
		c0.7-5.9-1.6-11.2-3.4-16.5c-0.3-1-0.7-2-1.4-2.8c-2.6-2.7-4.2-6.1-6.3-9.2c-1.6-2.4-3.7-4.3-6.4-5.3c-6.8-2.7-13.8-5-21.3-4.4
		c-3.4,0.3-6.7,0.5-9.8,2.1c-1.4,0.7-3,1.1-3.9,2.7c-0.3,0.4-1,0.6-1.5,0.9c-3.2,1.6-6.1,3.7-8.5,6.3c-2.9,3.2-5.5,6.6-8.2,10
		c-0.9,1.2-1.7,2.5-2.2,3.8c-1.4,3.6-2.8,7.2-4,10.9c-1.2,3.5-1.4,7-0.4,10.6c0.5,1.7,0.7,3.5,0.7,5.3c0,2,1,3.7,2.1,5.3
		c0.5,0.7,1.7,0.6,2.3,0c0.9-0.9,1-2.1,1.2-3.3c0.5-4,0.4-8.1,0.3-12.1c0-2.3,0.4-4.4,1.2-6.6c2.1-5.4,5.6-9.8,9.2-14.1
		c1.5-1.8,3.3-3,5.5-3.3c0.9-0.1,1.6-0.6,2.4-0.9c7.1-3.2,14.5-4.7,22.2-4.3c4.5,0.2,8.2,2,10.6,6.1c2.9,4.9,5,10.1,6.3,15.9
		c-1,0.2-1.9,0.3-2.7,0.4c-3.5,0.5-6.9,1.3-10.2,2.7c-3.6,1.5-6.8,3.5-8.5,7.3c-2.5,1.8-2.5,4.5-2.6,7.2c0,0.9,0.1,1.9-0.2,2.7
		c-0.6,1.7,0.1,2.9,1,4.1c1.5,1.9,3.6,3,5.7,4.1c1.4,0.7,2.7,1,4.2,0.5c1.8-0.5,3.7-0.9,5.6-1.1c7.5-1.1,12.6-5.3,15.3-12.5
		c0.6-1.7,1.3-3.3,2.6-4.6c1.7,0.4,2.7,1.7,3.8,2.8c5.4,5.3,7.5,12.1,7.9,19.4c0.3,4.6,0.1,9.3,0.1,13.9c0,0.7,0,1.5-0.3,2.2
		c-1.5,4.4-3.1,8.7-4.8,13c-0.7,2-1.9,3.7-3.3,5.3c-4.3,4.9-8.5,9.9-13.1,14.5c-4.2,4.2-8.7,8.1-13.2,11.9
		c-7.8,6.5-16.3,11.7-25.6,15.5c-4,1.6-8,2.9-12.1,3.9c-0.9,0.2-1.5-0.3-1.3-1.2c2-7.7,3-15.6,6-23c0.8-1.9,1.3-4,1.8-6
		c0.4-1.5,0.3-3.1-0.9-4.2c-1.3-1.2-1.7-2.6-2-4.3c-0.6-2.7-2.6-4.3-5.3-4.7c-2.5-0.4-4.6,0.6-6.2,2.6c-0.9,1.1-1.3,2.3-1.8,3.6
		c-1.1,2.8-2.1,5.6-3.4,8.3c-2.5,5-4.2,10.2-5.2,15.7c-0.8,4.4-1.3,8.9-1.9,13.3c-1.5,0.6-2.9,0.6-4.4,0.5c-3.2-0.3-6.4-1-9.5-1.7
		c-11-2.6-22.1-2.5-33.2-0.3c-7.1,1.4-13.7,4.3-19.4,8.9c-5.3,4.3-7.7,9.6-6.5,16.5c0.1,0.7,0.1,1.5,0.3,2.2
		c0.6,1.9,0.6,3.8,0.4,5.8c-0.4,4.6,1,8.2,4.9,10.8c4.1,2.6,8.6,3.3,13.4,2.5c3.7-0.6,6.5-3.2,10-4.2c1.1-0.3,2.1-1.1,3-1.8
		c1.9-1.5,3.5-3.2,4.7-5.3c0.4-0.8,0.4-1.8,1.3-2.3c0.3-1,0.6-2,0.7-3.1c0.4-2.5-1-5.1-3.1-5.9c-2.2-0.9-4.7-0.2-6.3,1.7
		c-0.4,0.5-0.7,1-1,1.5c-1.7,3.5-4.8,5.1-8.3,6.1c-2.9,0.8-6.8-0.7-8.4-3.4c-1.7-2.8-2.1-5.9-2-9.1c0-1.3,0.6-2.3,1.5-3.2
		c1.4-1.5,3.1-2.7,4.9-3.8c5-3,10.5-4.6,16.2-5.3c8.6-1,17.2-0.8,25.7,1.4c4,1,8.1,1.5,12.1,2.1c2.1,0.3,2.3,0.5,2,2.5
		c-0.4,3-0.9,5.9-1.3,8.9c-0.1,1-0.2,2.1-0.3,3.1l0,0c-0.1,2.4-0.1,4.8-0.3,7.2c-0.8,9.4-1.8,18.8-1.4,28.2c0,1,0,2.1,0,3.1
		s0,2.1-0.3,3.1c-1.1,5.3-1.5,10.7-1.3,16.1c0,1.3,0,2.7-0.5,4c-3.4,9.6-6.4,19.3-11.1,28.3c-2.3,4.5-4.6,9.1-6.8,13.6
		c-0.3,0.7-0.7,1.3-1.1,2c-1.1,1.7-2.5,1.8-4.1,0.5c-2.2-1.8-3.2-4.2-3.8-6.9c-1.5-7.6-1.5-15.2-0.6-22.8c0.3-2.8,1.1-5.5,2.1-8.2
		c2.6-7,5-14.1,7.6-21.1c0.5-1.4,1-2.8,0.8-4.4c-0.2-1.5-1.1-2.4-2.4-2.9s-2.6-0.5-3.6,0.7c-1,1.1-2,2.2-2.8,3.4
		c-1.4,1.9-2.7,3.8-4.2,5.9c-4.6-4.2-9.6-4.8-15.2-2.6c-0.9,0.4-2,0.5-3,0.4c-4-0.4-7.4,1.3-10.7,3.3c-3.1,1.9-6,4.3-8.7,6.8
		c-6.2,5.4-10.3,12.1-12.6,20.1c-0.5,1.9-1,3.8-1.6,5.6c-1.7,5.2-2.3,10.5-2.1,15.9c0.1,3.4,0.9,6.6,2.5,9.4
		c4.4,8,11.1,13.2,19.5,15.7c5.8,1.7,11,0.3,15.1-4.5c0.8-0.9,1.4-1.9,2-3c1.5-2.7,2.8-5.6,4-8.5c1.2-3.2,2.6-6.4,3.9-9.5
		c0.1-0.2,0.5-0.4,0.7-0.3c0.2,0,0.5,0.3,0.5,0.5c0.3,2.4,0.9,4.7,1.9,6.9c2,4.4,5.1,7.7,9.7,9.1c3.1,0.9,6,0.3,8.1-2.1
		c2.3-2.7,4.8-5.2,6.7-8.3c3.2-5.1,6-10.3,8.5-15.7c0.5-1.1,1.1-2.1,1.6-3.2c0.1-0.1,0.3-0.2,0.4-0.2c0.2,0.1,0.6,0.3,0.7,0.4
		c0.2,0.9,0.3,1.8,0.3,2.7c0.1,2.7-0.1,5.4,0.1,8.1c0.2,3.9,1.5,7.5,4.6,9.8c1.8,1.3,3.2,2.9,4.6,4.6c2.7,3.3,6.3,4.3,10.3,3.4
		c2.7-0.6,5.3-1.8,7.2-4.1c1-1.3,2.1-2.5,3.5-3.3c2.6-1.6,5-3.6,7.3-5.7c1.2-1.1,2.5-2.1,3.7-3.1c0.7-0.5,1.3-0.5,2,0
		c0.9,0.8,1.8,1.5,2.7,2.3c2.8,2.4,6,3.6,9.7,3.4c1.8-0.1,3.5,0,5.3-0.1c2.8-0.2,5.5-0.7,8.1-1.9c2.1-1,4.3-1.9,6.4-2.9
		c0.9-0.4,2.2-0.6,2.5-1.7c0.6-1.8,2.2-2.3,3.5-3.2c6.2-4.3,12.1-8.9,16-15.7c1.4-2.5,3.3-4.6,5.3-6.6c6-5.9,11.5-12.4,16.5-19.2
		c0.4-0.6,0.9-1.2,1.2-1.7c1.4,0.7,2.5,1.2,3.5,1.8c0.2,0.1,0.4,0.4,0.6,0.6c6.5,2,12.7,1.3,18.7-1.8c2.6-1.4,5.2-2.9,7.5-4.6
		c3.9-2.9,7.7-5.9,11.5-9c1.3-1,2.4-2.2,3.4-3.5C595.1,264.8,595.8,259.3,594.3,253.5z M484.7,114.4c-0.9-4.4-0.1-6.6,3.5-8.3
		c3.4-1.6,6.9-3.2,11.1-2.8C497.1,110.8,491.8,113.7,484.7,114.4z M389.7,295.6c-0.6,3.4-1.1,6.8-1.8,10.1c-1.2,5.4-1.4,11-1.3,16.5
		c0,2.3-0.3,4.5-1.5,6.4c-3.3,5.5-6.6,10.9-10.9,15.7c-0.6,0.7-1.2,1.3-1.9,1.8c-3.7,2.5-9.3,0.8-11.6-3.2c-1.4-2.4-1.2-4.8-1.1-8
		c-0.1-2.8,0.5-6.2,1-9.6c0.3-1.9,1-3.7,1.8-5.5c1.8-4.4,4.5-8.4,7.3-12.2c0.3-0.5,0.7-1,1.2-1.3c4.8-3.9,9.2-8.3,14.7-11.3
		c0.8-0.4,1.6-0.8,2.4-1.1C389.2,293.4,390,294.1,389.7,295.6z M475,315.2c-0.4-1.2,0-2.2,0.3-3.2c1.1-4,2.3-8,3.4-12.1
		c1.5-5.9,4.5-11,8-15.9c1.6-2.3,3.5-4.5,4.8-7c0.3-0.5,0.6-1,1-1.5c1.6-1.8,4-2.1,5.9-0.5c0.4,0.4,0.8,0.8,1.2,1.3
		c2.9,3.9,2.8,10.1-0.5,13.6c-3.8,4.1-7.3,8.5-10.8,13c-1.5,1.9-3.3,3.4-5,5c-2.4,2.4-4.9,4.7-7.4,7
		C475.6,315.1,475.4,315.1,475,315.2z M544.7,275.7c-1-1.2-0.8-2.8-1.1-4.2c-0.1-0.6,0-1.2,0-1.8c-0.2-4.3,1.4-7.9,3.9-11.1
		c0.6-0.8,1.5-1,2.4-0.6c0.8,0.3,1.1,1,1.1,1.8c0.1,2.3-0.3,4.5-1,6.6c-0.8,2.1-1.6,4.2-2.7,6.1
		C546.6,273.6,546.6,275.5,544.7,275.7z"/>
	<path class="st0" d="M339.1,272.7c-0.4-3-0.8-5.9-1.2-8.9c-0.6-4.2-1.9-8.2-2.9-12.2c-1.4-5.7-3.8-11-6.7-16.1
		c-3.5-6-8-11-13.6-15.1c-4.4-3.3-9.2-5.8-14.6-7.9c1.3-1.8,2.5-3.5,3.6-5.2c1.1-1.6,1.2-3.3,0.1-5c-0.2-0.1-0.3-0.1-0.5-0.2
		c-2,0.2-3.5,1.2-4.9,2.7c-1.2,1.5-2.7,2.7-4,4.2c-1.2,1.4-2.6,1.6-4.3,1.5c-10-0.4-19.9-0.1-29.6,2.5c-3,0.8-5.9,1.7-8.8,2.7
		c-16.9,5.5-32.6,13.2-46.9,24.1c-3.4,2.6-6.8,5.3-9,9.1c-2.2,3.6-4,7.3-6,11c-0.3,0.6-0.6,1.4-0.7,2.1c-2.5,12.2,7,23.6,16.2,23.3
		c0.7,0,1.5,0.2,2.2,0.2c5,0.1,9.9-0.7,14.3-3.4c5.5-3.4,8.3-9.5,7.2-15.7c-0.2-1-0.3-2.1-0.5-3.1c-0.9-4.3-5.7-8.6-10-8.9
		c-2.9-0.2-5.1,1.2-6.1,4c-0.9,2.4,0,5,2.3,6.6c0.6,0.4,1.3,0.7,1.9,1.1c0.7,0.5,1.5,0.9,2.2,1.5c2,1.7,2.1,3.3,0.3,5.3
		c-1.4,1.6-3.3,2.6-5.3,3c-2.1,0.4-4.3,0.5-6.5,0.4c-4.5-0.1-7-2.7-8.8-6.3c-1.4-2.7-1.4-5.5,0.1-8.2c0.9-1.7,1.8-3.4,2.7-5.1
		c1.6-3.1,3.7-5.8,6.4-7.9c3.5-2.7,7-5.4,10.7-7.8c13.8-9,28.9-15.1,44.6-19.6c3.9-1.1,7.9-2.2,12.1-2.3c1,0,2-0.1,3,0.5
		c0.8,0.4,1,1.1,0.5,1.8c-2.7,3.5-5.6,6.9-8.1,10.6c-6.3,9.2-11.9,18.8-17,28.9c-7.2,14.3-13.3,29-18.5,44.2
		c-4.2,12.3-7.7,24.8-10.9,37.4c-0.8,3-1.6,6.1-1.8,9.2c-0.1,1-0.4,2.1-0.7,3c-1,2.5-1.6,5.1-1.9,7.8c-0.3,2.6-1.2,4.9-2,7.4
		c-0.4,1.4-1.3,2.2-2.8,2.4c-4.6,0.6-9.2,1.8-13.9,1.7c-0.9,0-1.8,0.1-2.5,0.6c-2.2,1.4-4.5,2-7,2.4c-1.4,0.2-2.7,1.1-4.1,1.7
		c-1.5,0.7-2.9,1.5-4.4,2c-2.2,0.7-3.9,1.9-5.4,3.7c-0.8,0.9-1.5,1.8-2.4,2.6c-5.2,4.4-4.4,5-5.3,10.8c-0.1,0.6-0.2,1.2-0.2,1.8
		c-0.2,3.3,1.2,5.8,4,7.4c1.8,1,3.8,1.6,5.9,1.5c2.1-0.1,4.1,0.2,6.1,0.5c7.9,1.4,15.4-0.5,22.7-3.5c0.8-0.3,1.6-0.8,2.3-1.3
		c2.9-2.1,6.1-4,7.6-7.3c1.8-3.9,4.5-7,6.8-10.4c0.6-0.9,1.4-1.5,2.5-1.6c1.9-0.3,3.7-0.5,5.7-0.5c4.1,0.1,8.2-0.1,12.3-0.7
		c1.2-0.2,2.3-0.3,3.5-0.3c3.2,0,6.4-0.7,9.5-1.4c9.5-2.3,18.4-5.9,27-10.4c3.9-2.1,7.8-4,11.3-6.9c5.1-4.2,10.2-8.4,15.4-12.5
		c6.4-5.1,11.6-11.4,15.6-18.7c2.8-5.1,5.1-10.5,7.3-15.9c3.5-8.5,5.3-17.4,5.2-26.7C340.2,284.6,339.8,278.7,339.1,272.7z
		 M200.7,390.2c-3.1,1.8-6.2,3.5-9.6,4.2c-1.3,0.3-2.6,0.6-3.9,0.7c-2.3,0.1-3.9-1.3-4.2-3.6c0-0.4,0-1,0.3-1.3
		c2.6-3,5.1-6.2,8.9-7.8c1.8-0.7,3.5-1.3,5.5-1.2c1.2,0.1,2.4,0.1,3.5-0.2c3.5-1,7-0.6,11.6-0.5
		C208.4,384.4,204.8,387.7,200.7,390.2z M315.7,269.6c0.1,6.5-1.4,12.8-2.3,19.2c-1.8,12-6.6,23-11.9,33.7c-1.1,2.3-2.7,4.3-4.1,6.3
		c-1.1,1.6-2.4,3-3.4,4.7c-3.5,6.2-9.1,10.1-14.9,13.5c-8.3,4.9-17.1,8.6-26.1,11.7c-2.9,1-5.9,1.9-8.8,2.8c-2.1,0.7-4.2,1.3-6,2.7
		c-1.3,1-2.9,1.2-5,1.6c0.2-1,0.2-1.4,0.3-1.8c3-7.3,4.3-14.9,4.7-22.7c0.1-2.1,0.7-4.1,1.4-6.1c4.7-12.4,9.2-25,14.7-37.1
		c2.8-6.1,5-12.5,7.5-18.7c4.1-10.3,8.1-20.6,12.4-30.7c3.6-8.6,8.6-16.3,14.5-23.5c1.3-1.5,2.5-1.9,4.2-1c0.7,0.3,1.5,0.4,2,0.8
		c4.4,3.3,9,6.3,12.1,10.9c2.7,4,4.9,8.2,7.1,12.4c1.6,3,1.8,6.3,1.8,9.6C316,261.9,315.7,265.8,315.7,269.6z"/>
	<path class="st0" d="M193.6,142.5c-1,3.4-1.9,6.9-3.3,10.1c-1.6,3.8-2.5,7.6-2.4,11.7c0.1,0.7,0.2,1.5,0.2,2.2c0,3.3,0,6.6-0.1,9.9
		c0,3.2,0.4,6.4,2.2,9c3.4,5,7.4,9.3,13.3,11.2c4.1,1.4,8,1.5,11.8-0.8c1.7-1,3.2-2.1,4.6-3.4c2.3-2.1,4.3-4.5,6.4-6.8
		c2.1-2.5,4.3-4.9,6.5-7.3c0.1-0.1,0.3,0,0.6-0.1c0.3,0.6,0.6,1.3,0.9,1.9c2.5,5.2,6.3,8.2,12.2,7.7c0.4,0,0.9,0,1.3,0
		c3.5,0.2,6.3-1.2,8.6-3.7c2.4-2.4,4.7-4.9,7.1-7.3c1.9-2.3,3.7-4.5,5.8-7c0.9,1.1,0.6,2.2,0.8,3.1c0.2,1,0.3,2.1,0.5,3.1
		c0.2,0.9,0.4,1.8,0.7,2.6c0.4,0.9,1,1.8,1.5,2.7c1.4,3.2,1.9,3.8,5,5.4c0.8,0.4,1.6,0.7,2.4,1.1c1.5,0.7,3,0.8,4.6,0.1
		c2.6-1.3,5.3-2.6,7.9-4c1.5-0.8,3.2-1.7,4.4-3c3.4-3.7,6.6-7.7,9.8-11.5c0.5-0.6,0.8-1.3,1-2c1.3-5.8,4.1-10.9,6.9-15.9
		c2-3.6,3.7-7.1,4.4-11.2c0.3-1.9,0.9-3.8,1.7-5.6c0.3-0.8,0.9-1.3,1.7-1c3.1,1.2,6.3,1,9.6,1c2.6,0,5.2,0.4,7.8,0.8
		c-0.7,4.6-0.4,8.9-0.4,13.2c0,6.5,2,12.3,5.7,17.6c2.1,2.9,4.5,5.6,7.1,8c1.9,1.7,4,3,6.4,3.9c1.4,0.5,2.8,0.7,4.3,0.3
		c3.1-0.8,6.2-1.6,9.3-2.4c3.3-0.9,6.2-2.5,8.9-4.6c4.3-3.4,8.4-7,12.1-11c2.1-2.3,4-4.7,6-7.2c0.7-0.9,0.5-2-0.1-2.9
		c-0.6-0.8-1.8-1.1-2.8-0.5c-0.8,0.4-1.4,1-2.2,1.5c-1.2,0.8-2.4,1.7-3.8,2.3c-4,2-7.8,4.2-11.2,7.1c-2.7,2.4-5.4,2.7-8.4,1.3
		c-0.9-0.4-1.9-0.9-2.8-1.2c-2.1-0.7-3.4-2.2-4.6-4c-1.3-1.9-1.8-4.1-1.8-6.4c-0.1-7.5-0.4-15,0.6-22.5c0.3-2.3,1.1-3.9,3.2-4.8
		c1.5-0.6,3.1-1.2,4.2-2.3c2.4-2.4,5.1-4.4,7.8-6.5c2.5-1.9,4.7-4.1,6.4-6.7c2.3-3.3,4.3-6.8,6.3-10.2c1.4-2.4,1.6-5.1,1.9-7.8
		c0.1-1.2-0.2-2.4-0.9-3.4c-1.5-2.3-3.6-4-6.2-4.7c-2.4-0.6-4.9-0.9-7.4-0.8c-2.4,0.1-4.7,0.7-6.7,2c-4.2,2.9-7.9,6.3-10.2,11
		c-2.1,4.3-4.7,8.3-7.5,12.1c-3.9,5.4-8,10.7-9.7,17.5c-0.2,0.8-0.7,1.3-1.4,1.6c-4.1,1.2-8.3,2.1-12.6,1.2c-3.8-0.8-5-3.5-3.4-7
		c1-2,1.8-4.1,2.2-6.3c1.3-6.6,2.8-13.2,1.8-20c-2.3-1.1-4.7-1.9-7.2-2.7c-1.7-0.6-3.1-0.5-4.5,0.6c-4.3,3.2-7.5,7.1-8.1,12.7
		c-0.1,1.2-0.3,2.3-0.7,3.5c-1.4,3.9-1.1,8-0.4,12c0.6,3.3,2.3,5.8,4.9,7.7c0.5,0.4,1,0.6,1.5,0.9c0.7,0.4,0.9,1.1,0.9,1.9
		c0,0.9-0.2,1.8-0.5,2.6c-0.6,1.5-1.3,3-1.7,4.6c-0.7,2.8-2.1,5.2-3.6,7.6c-1.9,2.9-3.7,5.8-5.1,8.9c-2.1,4.7-4.8,8.9-7.8,13
		c-1.6,2.1-3.2,3.9-6.1,2.9c-0.6-0.2-1.4,0.3-2.1,0.5c-0.5,0.1-0.9-0.2-0.9-0.7c0-1.4-0.7-2.6-1.1-3.8c-1.9-6.4-1.9-6.4-1.7-13.6
		c0.1-3.4,0.4-6.9,0.5-10.3c0.1-6.6,0.4-13.2,1.8-19.6c0.3-1.5,0.4-3,0.4-4.5c0.1-3.3-1.7-5.7-4.5-6.3c-2.7-0.5-5.7,1.5-6.2,4.4
		c-0.1,0.6-0.3,1.2-0.4,1.7c-1.1,6.2-2.7,12.3-4.2,18.4c-0.7,2.8-1.5,5.5-1.4,8.4c0.1,3-0.8,5.6-2.1,8.2c-2.7,5.3-5.4,10.6-8.4,15.8
		c-1.8,3.1-4,5.9-7.1,7.8c-2,1.4-4,2.3-6.5,1.5c-0.4-0.1-0.9-0.2-1.2,0c-0.7,0.2-1.3,0.7-2,0.2c-0.8-0.5-1.1-1.4-1.3-2.2
		c-0.7-3.1-0.6-6.2-0.3-9.3c-0.2-3.7-0.4-7.5,0.1-11.2c0.4-3.4,0.9-6.8,1.3-10.2c0.2-2.2,0.5-4.5,0.3-6.7c-0.1-2.3-0.1-4.5,0.5-6.7
		c0.4-1.5,0.6-3,0.2-4.4c-0.4-1.3-0.8-2.7-2.3-3.1c-1.6-0.5-2.4,0.7-3.2,1.8c-0.5,0.7-1,1.5-1.4,2.3c-0.6,1.2-1.1,2.5-1.6,3.7
		c-0.3,0.7-0.5,1.4-0.7,2.1c-0.4,1.2-0.8,1.3-2.2,1.1c-1.6-0.3-2.5-0.5-3.1-2.2c-0.7-2.2-2.5-3.6-4.6-4.5c-2.8-1.3-5.5-2.6-8.3-3.9
		c-1.7-0.8-3.4-0.8-5.1-0.1c-3,1.2-5.9,2.5-8.1,5.1c-1.8,2.1-3.8,4.1-5.9,6C196.1,136.5,194.6,139.3,193.6,142.5z M365.7,109.6
		c1.8-3.9,3.6-7.8,5.6-11.6c1-1.8,2.6-3.2,3.9-4.8c2-2.4,4.7-2.1,7.3-1.8c0.6,0.1,0.9,0.7,0.9,1.3c0.1,1.1-0.2,2.1-0.7,3
		c-1.2,2.4-2.4,4.7-3.7,7.1c-0.7,1.3-1.7,2.4-3,3.2c-3.1,2.1-6.3,4.3-9.5,6.4c-0.5,0.3-1,0.6-1.6,0.4
		C364.5,111.6,365.3,110.6,365.7,109.6z M316.5,119.7c-0.6-0.5-0.9-1.2-0.9-2c-0.2-3.3-0.8-6.5,0.5-9.7c0.5-1.3,0.5-2.6,0.6-4
		c0.2-2.5,0.9-4.9,3.5-7.4c0,4.4,0,7.8,0,11.3c0,0.7,0,1.6-0.3,2.2c-1.3,2.9-1.9,5.9-1.8,9.1c0,0.4-0.2,0.9-0.8,0.8
		C316.9,120,316.7,119.9,316.5,119.7z M203,162.6c0.6-6.8,2.4-13.2,6.3-18.8c0.7-1.1,1.7-2,2.7-2.9c1.7-1.5,3.4-2.8,5.1-4.2
		c3.8-3,2.9-3.2,7.4-0.1c0.5,0.3,1,0.7,1.4,1c6.7,5,5.6,4.4,4.9,11.5c-0.6,6.2-2.9,12.1-5.8,17.7c-1,2-2.9,3.2-4.4,4.8l0,0
		c-2.5,3.5-5.1,6.8-8.1,9.9c-1.7,1.8-3.7,2.3-5.9,1.9c-2.1-0.4-3.6-2.1-3.7-4.3c-0.1-2.2,0.1-4.4,0.1-6.7
		C203,169.2,202.7,165.9,203,162.6z"/>
	<path class="st0" d="M175.7,348.2c3.7-3.1,7.5-6.3,11.2-9.5c0.6-0.5,1.2-1,1.5-1.6c2.2-4.1,5.3-7.5,8.3-11c2-2.3,3.1-5.1,3-8.2
		c0-0.3-0.2-0.8-0.3-0.8c-0.4,0-1,0-1.1,0.3c-2.1,3.2-5,5.4-7.9,7.7c-1.3,1-2.6,2.1-3.5,3.4c-3,4.6-7.6,7.4-11.8,10.6
		c-1.5,1.2-3.3,2.1-5.3,1.9c-1.8-0.1-3.4-0.2-5.2,0.2c-1.3,0.3-3-0.3-3.2-1.7c-0.2-1.5-1-2-1.9-2.7c-1.1-0.8-2.1-1.7-2.7-2.9
		c-0.7-1.4-0.8-2.8,0.2-4.2c1.8-2.7,3.7-5.3,6.7-7c2.7-1.5,5.2-3.4,7.3-5.7c1.8-2,3.7-3.9,5.6-5.7c3.1-3,5.5-6.5,7.8-10.2
		c3.2-5.1,2.9-10.2,0.9-15.5c-0.3-0.9-0.8-1.7-1.6-2.1c-2.4-1.2-4.9-2.1-7.6-1.9c-1.9,0.2-3.8,0.6-5.6,1c-0.9,0.2-1.7,0.6-2.6,0.2
		c-1.5-0.9-2.9-0.2-4.2,0.5c-1.8,1-3.5,2.2-5.4,3.1c-4.4,2.1-7.5,5.7-10,9.8c-1.6,2.7-2.9,5.6-4.2,8.4c-2.3,4.9-2.8,10-2.4,15.3
		c0.3,4.5,0.7,8.9-0.1,13.4c-0.9,5.4-4.3,8.6-8.4,11.5c-0.4,0.3-1.1,0.3-1.7,0.3c-2.8,0-4.6-2-4.3-4.9c0.2-1.9,0.6-3.8,0.9-5.7
		c0.5-3.1,1.2-6.1,2.8-8.9c1-1.8,1.7-3.8,2.3-5.8c1.1-3.7,2.4-7.4,3.9-11c2.7-6.2,1.9-12.3-0.9-18.2c-1.1-2.2-3.2-3.3-5.5-2.7
		c-6.4,1.6-12.2,4.2-16.2,9.9c-2,2.8-4.1,5.5-6.6,7.8c-0.9,1.4-1.9,2.9-2.8,4.3c-0.3,0.9-0.8,1.6-1.5,2.1c-0.2,0.1-0.5,0.1-0.7,0
		c-0.1,0-0.1-0.3-0.1-0.4c0.2-1,0.6-2,1.4-2.7c0.8-1.6,1.4-3.3,2.6-4.6c1.1-2.8,2.5-5.5,3.3-8.3c3-9.7,6.2-19.3,9.7-28.9
		c1.7-4.6,2.6-9.5,2.1-14.5c-0.1-1.3-0.2-2.7-0.9-3.9c-1.7-3.1-4.5-5.1-8-1.4c-2.4,2.6-3.9,5.6-5,8.8c-3.6,9.8-6,20-9.6,29.9
		c-3.2,8.7-5.4,17.7-6.3,27c-0.1,1.2-0.6,2.3-1.1,3.4c-3.1,6.3-6.3,12.5-10.7,18c-3.2,4.6-6.3,9.4-10.3,13.4
		c-4.1,4.1-5.4,4.6-11,3.5c-0.9-0.2-1.7-0.5-2.6-0.7c-1.8-0.4-2.8-1.6-3.2-3.3c-0.2-1-0.5-2-0.6-3.1c-0.4-4.3-0.4-8.7,0.2-13
		c1.1-7.3,2.3-14.5,3.5-21.7c0.3-2.1,0.8-4.1,1.2-6.2c0.2-0.9,0.5-1.8,1.4-2.1c4.7-1.6,9.2-3.9,14.3-3.9c6.8-0.1,12.9-2.5,18.6-6
		c2.2-1.4,3.8-3.2,4.7-5.7c0.7-1.8,1.6-3.5,2.3-5.3c0.4-0.8,0.7-1.7,0.9-2.5c0.7-3.6-1.9-6.6-5.3-6.3c-1.2,0.1-2.3,0.3-3.5,0.6
		c-3.9,0.9-7.5,2.5-10.9,4.6c-5.8,3.5-12.3,5.7-17.8,9.6c-0.1,0.1-0.3,0.1-0.4,0.2c-0.8,0.4-1.5-0.1-1.3-1c0.7-3.8,1.3-7.7,2.2-11.4
		c1.7-7.3,3.8-14.5,5.1-21.8c0.1-0.6,0.3-1.2,0.4-1.7c0.1-0.6,0-1.2-0.1-1.8c-0.1-0.8-0.6-1.4-1.4-1.6c-0.8-0.2-1.5,0.1-1.9,0.8
		c-1.4,2.6-2.9,5.2-4,8c-4.3,11-8.4,22-11.3,33.5c-0.6,2.4-1,2.8-3.7,2.9c-3.8,0.1-7.6-0.1-11.4,0c-4.9,0.1-9.1-2.1-13-4.7
		c-2.4-1.6-2.6-2.8-1.5-6.1c1.4-2.1,2.5-4.6,5.2-5.3c1.4-0.8,1.9-2,2-3.6c-1-3.8-4-5-7.4-5.1c-3.1-0.1-5.6,1.4-7,4.4
		c-1.1,2.3-2.2,4.6-2.9,7c-1.4,4.7-1.8,9.4,1.5,13.6c2.8,3.4,6.3,5.8,10.3,7.3c3,1.2,6.1,2.1,9.1,3.2c0.7,0.2,1.5,0.3,2.1,0.7
		c2.3,1.8,4.9,1.7,7.6,1.3c1.9-0.3,3.7-0.4,5.6,0.4c-0.2,1.4-0.4,2.7-0.7,4.1c-1.3,6.3-2.6,12.6-3.8,18.9
		c-1.4,6.8-1.8,13.6-0.5,20.5c1.4,7.5,5.3,12.5,12.8,14.3c3.1,0.7,6.3,1.3,9.6,1.3c5,0.1,9.1-1.8,12.2-5.8c4.2-5.4,8.1-11,11.5-17
		c0.5-0.9,0.9-2,2.5-2.8c-1.1,3-0.9,5.7-1.5,8.4c-0.8,3.7-0.3,7.5-0.3,11.2c0,0.3,0.1,0.6,0.2,0.9c0.6,1.8,2.2,2.3,3.7,2.9
		c1.2,0.5,1.8-0.5,2.7-1c1.8-1.1,2.6-2.8,3.1-4.7c0.9-3.5,1.9-6.9,2.5-10.5c1.8-11.3,6.9-21.2,12-31.2c0.3-0.7,0.7-1.3,1.2-1.9
		c3-3.8,6.1-7.7,9.2-11.5c1.2-1.5,2.5-3,4.6-3.1c1.4,2,0.4,3.9-0.2,5.9c-0.8,2.6-1.8,5.1-2.5,7.7c-2.5,9.1-5.1,18.1-5.2,27.7
		c0,1.7-0.3,3.5,1.2,4.5c1.3,0.9,1.6,1.9,1.9,3.3c0.4,2.6,2.1,4.5,4.5,5c4.5,0.9,8.9,1.3,12.9-2.2c2.8-2.5,6.1-4.6,9.2-6.9
		c3.3,3.2,7,5.6,10.9,7.6c4.6,2.3,9,2.1,13.4-0.6C174,349.4,174.9,348.9,175.7,348.2z M159.3,310.1c2-2.6,3.6-5.4,5.3-8.2
		c1.9-3.2,4.2-6.1,6.7-8.9c1.6-1.8,4.1-2.1,6.3-2.6c0.7,1,0.1,1.6-0.2,2.1c-1.7,2.8-3.1,5.8-5.6,8c-0.6,0.5-1,1.1-1.4,1.7
		c-3.2,5.1-7.8,8.9-11.7,13.3c-0.2,0.2-0.5,0.3-1.4,0.7C157.5,313.8,158,311.8,159.3,310.1z"/>
	<path class="st0" d="M77.9,192.6c1.7,6.3,4.9,11.5,9.5,15.8c2.6,2.4,5.5,4.5,8.4,6.5c5.6,3.2,11.6,4.6,18,4.4
		c3.6-0.1,7.3-0.2,10.9,0.1c2,0.2,4.1-0.1,6.1-0.6c3.7-0.9,7.4-1.7,11.1-2.6c3.7-0.8,7.4-2,10.4-4.5c2.2-1.8,4.5-3.3,7-4.6
		c2.5-1.4,4.6-3.2,6.4-5.3c1.2-1.5,2.5-3,3.7-4.4c1.7-1.9,2.8-4.2,3.6-6.6c1.6-4.5,2.4-9.2,3.5-13.9c-0.1-2.2-0.2-4.5-0.2-6.7
		c0.1-4.2-0.4-8.4-1.4-12.5c-0.9-3.5-1.7-7-2.4-10.5c-0.5-2.7-1.3-5.2-2.2-7.7c-0.6-1.7-1.3-3.4-1.6-5.1c-0.8-4.5-2.4-8.6-4.5-12.6
		c-0.6-1.2-1.2-2.4-1.5-3.7c-1.4-6-3.5-11.7-5.2-17.6c-0.5-1.8-1.3-3.4-2.5-4.7c-3.2-3.6-5.1-8-6.1-12.7c-0.5-2.5-1.3-4.9-1.8-7.4
		c-0.9-4.4-1-8.9,0-13.3c0.9-3.9,1.8-7.9,2.3-11.9c0.7-5.4,3.3-9.6,7.9-12.3c2.5-1.5,5-3,7.3-4.8c2.8-2.1,5.7-3.1,9.4-2.5
		c2.5,0.4,4.8,1.4,7.2,1.6c0.9,0.1,1.5,0.8,2.1,1.6c3.8,5.2,4.6,7.5,4.9,14c0.1,1-0.1,2.1-0.1,3.1c0,1.2,0,2.4,0.4,3.5
		c0.7,1.8,2,3,3.9,3.2s3.3-0.8,4.4-2.5c0.2-0.3,0.3-0.5,0.4-0.8c0.5-1.9,1.6-3.5,2.5-5.3c0.7-1.4,1.2-2.8,1.2-4.3
		c0.1-2.4,0.2-4.8,0.1-7.2c0-1.7-0.6-3.2-1.5-4.6c-1.3-2.2-2.4-4.4-3.8-6.6c-2.1-3.4-4.8-6.1-8.4-7.7c-4.8-2-9.7-3.1-14.9-3.3
		c-2.9-0.1-5.5,0.6-8,2c-2.1,1.2-4.1,2.3-6.1,3.5c-9.6,6.2-16.9,14.1-19.2,26.1c-1.8,9.2-2.7,18.4-1.8,27.7c0.9,9.6,3.3,18.8,6.1,28
		c1.8,6,3.7,12,5.5,18c0.3,1,0.4,2.1,0.6,3.1c0.8,4.3,1,8.7,2.5,12.8c1.7,4.4,2.1,9,1.9,13.7c-0.1,1.6,0,3.3-0.1,4.9
		c-0.2,5.8-0.5,11.7-1.8,17.4c-1.1,5-2.8,9.8-6.2,13.7c-3.7,4.8-8.2,8.7-13.1,12.3c-0.7,0.5-1.5,1-2.3,1.2c-4.8,1.3-9.6,2.6-14.6,2
		l0,0l0,0c-2.8,0.7-5.5,0.3-8.3-0.3c-0.7-0.2-1.4-0.5-2.1-0.5c-3.7-0.1-7.2-1.3-10.5-3c-5.9-2.9-9.6-7.6-9.8-14.7
		c-0.2-4.6,0.8-8.9,2-13.2c1.6-5.9,5.7-8.9,11-10.4c1.9-0.6,4.1-0.2,6.1-0.1c0.5,0,1,0.8,0.8,1.4c-0.3,1-0.7,2-1,3
		c-0.9,3.2,0,5.9,2.3,8.2c2.8,2.7,7.9,3.1,11,0.7c4.4-3.5,5.9-6.4,4.5-12.5c-0.6-2.6-1.8-5.1-2.5-7.6c-0.9-3.4-3.4-5.2-6.3-6.3
		c-1.2-0.5-2.6-0.6-3.9-0.6c-3.1,0-6.1,0.1-9.2,0.1c-1.8,0-3.5,0.5-5.1,1c-5.3,1.5-9.3,4.9-13.1,8.7c-1.4,1.4-2.3,3-2.7,5
		c-0.8,4-1.6,7.9-2.7,11.8c-0.7,2.7-0.9,5.3-0.6,8C76.2,184.7,76.9,188.7,77.9,192.6z"/>
</g>
</svg>
